<svg width="29" height="23" viewBox="0 0 29 23" fill="none" xmlns="http://www.w3.org/2000/svg">
<path d="M14.4037 23.0013C12.1443 23.0013 9.93626 22.5583 7.8309 21.6721C6.7012 21.19 5.64852 20.5645 4.71138 19.7826C4.35193 19.4829 4.21071 19.1571 4.21071 18.688C4.22355 17.2806 4.22355 15.8472 4.22355 14.4659C4.22355 13.4886 4.22355 12.5112 4.22355 11.5209C4.22355 11.1821 4.09518 10.9605 3.79991 10.8041C3.23506 10.5044 2.65737 10.1917 2.10536 9.87893C1.60469 9.60528 1.09119 9.31859 0.577689 9.05797C0.166888 8.8625 0 8.61491 0 8.26307C0 7.92426 0.179726 7.67667 0.577689 7.45514C4.82691 5.13559 9.38424 2.64664 13.9287 0.157686C14.1341 0.0404059 14.3139 -0.0117188 14.4936 -0.0117188C14.6733 -0.0117188 14.8659 0.0404059 15.0713 0.157686C19.9624 2.84211 24.3015 5.21378 28.3324 7.40301C28.8203 7.66364 29 7.97638 29 8.52369C28.9872 9.87893 28.9872 11.2602 28.9872 12.5894C28.9872 13.267 28.9872 13.9316 28.9872 14.6092C28.9872 15.0262 28.7818 15.326 28.4095 15.4432C28.3325 15.4693 28.2554 15.4823 28.1784 15.4823C27.9088 15.4823 27.6777 15.352 27.5494 15.1305C27.4595 14.9741 27.3953 14.7526 27.3953 14.5702C27.3825 13.5407 27.3825 12.4982 27.3825 11.4948C27.3825 11.156 27.3825 9.60528 27.3825 9.60528L27.0102 9.81378C26.8305 9.905 26.6636 9.99621 26.4967 10.0874C25.996 10.3611 25.5339 10.6087 25.0717 10.8823C24.8535 11.0126 24.7765 11.3124 24.7765 11.4818C24.7636 13.8274 24.7508 16.2512 24.7765 18.675C24.7765 19.1441 24.6352 19.4699 24.2758 19.7696C22.6326 21.1118 20.6684 22.05 18.4475 22.5322C17.0739 22.8449 15.7131 23.0013 14.4037 23.0013ZM5.84108 12.3418C5.84108 12.3679 5.82824 12.3809 5.82824 12.407C5.81541 12.4461 5.81541 12.4852 5.81541 12.5373V13.3452C5.81541 14.9611 5.81541 16.6421 5.82824 18.284C5.82824 18.4925 5.98229 18.7141 6.12351 18.8313C7.07348 19.5611 8.16467 20.1214 9.46127 20.5645C11.066 21.1118 12.7477 21.3855 14.4551 21.3855C15.1996 21.3855 15.9699 21.3333 16.7273 21.2291C19.1151 20.9033 21.1306 20.1345 22.8765 18.8704C23.1076 18.701 23.2103 18.5056 23.1974 18.2189C23.1974 16.8767 23.1974 15.5084 23.1974 14.1792V12.6937C23.1974 12.6285 23.1974 12.5764 23.1846 12.4982C23.1846 12.4591 23.1846 12.42 23.1718 12.3809L23.1589 11.977L22.6711 12.2245C22.5812 12.2636 22.5042 12.3027 22.4272 12.3549C21.811 12.6937 21.1948 13.0194 20.5914 13.3583C18.7942 14.3356 16.9327 15.352 15.1098 16.3685C14.8915 16.4857 14.699 16.5379 14.5193 16.5379C14.3267 16.5379 14.1341 16.4727 13.9031 16.3554C12.0673 15.339 10.193 14.3095 8.37008 13.3192C7.75387 12.9804 7.13767 12.6415 6.52147 12.3027C6.45728 12.2636 6.3931 12.2376 6.31607 12.1985L5.90527 11.99L5.84108 12.3418ZM14.5064 1.78658C14.3395 1.78658 14.1983 1.85174 14.1085 1.90386C12.0159 3.0506 9.92342 4.19735 7.81806 5.34409L2.51616 8.25004L2.90128 8.4846L3.01682 8.56279C3.08101 8.60188 3.13236 8.62794 3.18371 8.66704L5.43028 9.89197C8.28021 11.4557 11.2328 13.0585 14.1341 14.6614C14.2625 14.7265 14.378 14.7656 14.4936 14.7656C14.622 14.7656 14.7375 14.7265 14.8915 14.6483C17.4719 13.2279 20.0522 11.8206 22.6454 10.4002L25.7778 8.68007C25.842 8.64097 25.9062 8.60188 25.9832 8.54976C26.0217 8.52369 26.0474 8.51066 26.0859 8.4846L26.4325 8.26307L26.073 8.04154L25.996 7.98942C25.9447 7.96335 25.9062 7.93729 25.8676 7.91123L23.5697 6.64721C20.6684 5.0574 17.7672 3.48063 14.8659 1.89083C14.7375 1.82568 14.622 1.78658 14.5064 1.78658Z" fill="#898989"/>
</svg>
