<svg width="27" height="27" viewBox="0 0 27 27" fill="none" xmlns="http://www.w3.org/2000/svg">
<path d="M13.0295 0C13.3441 0 13.6587 0 13.9732 0C14.0126 0.0131068 14.0519 0.0393204 14.0912 0.0393204C17.2893 0.537379 18.7834 4.14175 16.8698 6.73689C16.8305 6.78932 16.8043 6.85485 16.765 6.92039C18.4558 7.23495 19.6747 8.15243 20.6184 9.52864C21.2999 10.5248 22.0339 11.4816 22.7286 12.4515C22.8203 12.5825 22.9252 12.6481 23.0956 12.635C23.6329 12.6218 24.1703 12.6218 24.7077 12.635C25.9135 12.6612 26.9228 13.6311 27.0014 14.8369C27.08 16.0558 26.2543 17.2092 25.0485 17.3141C23.8033 17.4189 22.5451 17.3534 21.2868 17.3534C21.1951 17.3534 21.0902 17.3272 20.9985 17.301C20.1334 17.1044 19.4388 16.6456 18.9145 15.9248C18.7965 15.7675 18.6786 15.5971 18.5213 15.4005C18.5213 16.816 18.5213 18.166 18.5213 19.5291C18.6261 19.5029 18.7048 19.4898 18.7965 19.4636C19.7009 19.2015 20.6053 19.0442 21.549 19.0704C23.5805 19.1097 25.2975 20.8267 25.363 22.8451C25.4417 25.1388 23.6723 26.9738 21.3786 26.9738C16.1359 26.9738 10.88 26.9738 5.63731 26.9738C5.44071 26.9738 5.231 26.9607 5.0344 26.9345C3.35673 26.7117 1.9543 25.3485 1.69216 23.6971C1.41692 21.9015 2.32129 20.1845 3.92032 19.4374C4.95576 18.9524 6.01741 19.018 7.09216 19.2146C7.5509 19.2932 8.00964 19.4243 8.46838 19.5291C8.46838 18.166 8.46838 16.816 8.46838 15.466C8.44217 15.466 8.42906 15.4529 8.42906 15.466C8.29799 15.6364 8.16692 15.8199 8.03585 15.9903C7.36741 16.8684 6.47615 17.3534 5.37517 17.3796C4.35284 17.4058 3.33051 17.3927 2.32129 17.3796C1.31207 17.3665 0.420806 16.6981 0.106242 15.7544C0.0538152 15.6102 0.0276016 15.466 -0.0117188 15.3218C-0.0117188 15.1121 -0.0117188 14.9024 -0.0117188 14.6927C0.00138805 14.6534 0.0276016 14.6141 0.0276016 14.5748C0.315951 13.3427 1.20721 12.6481 2.46547 12.635C2.93731 12.635 3.39605 12.6218 3.86789 12.635C4.0645 12.635 4.16935 12.5694 4.2742 12.4252C5.08682 11.3374 5.89945 10.2233 6.71207 9.12233C7.45916 8.1 8.45527 7.43155 9.6611 7.06456C9.84459 7.01214 10.0412 6.97282 10.2509 6.90728C10.1985 6.82864 10.1592 6.76311 10.1198 6.71068C8.33731 4.31214 9.55624 0.878155 12.466 0.131068C12.6494 0.0786408 12.846 0.0393204 13.0295 0ZM10.0674 16.3704C10.0674 17.4976 10.0674 18.6248 10.0674 19.7388C10.0674 19.9354 10.1198 20.001 10.3164 20.0534C11.3126 20.3155 12.2956 20.5908 13.2917 20.8529C13.4359 20.8922 13.6062 20.8791 13.7504 20.8398C14.7203 20.5908 15.6771 20.3155 16.647 20.0665C16.8698 20.001 16.9354 19.9092 16.9354 19.6733C16.9223 17.4451 16.9354 15.2301 16.9223 13.0019C16.9223 12.7005 17.0009 12.4515 17.2499 12.268C17.63 11.9927 18.0888 12.0845 18.3902 12.5039C18.9931 13.3296 19.5829 14.1553 20.1728 14.9942C20.566 15.5447 21.1033 15.8068 21.7718 15.8068C22.6893 15.8068 23.6198 15.8068 24.5373 15.8068C25.0485 15.8068 25.4024 15.4791 25.4024 15.0204C25.4024 14.5617 25.0485 14.234 24.5373 14.234C23.8951 14.234 23.2528 14.2209 22.6106 14.234C22.2174 14.2471 21.9422 14.1029 21.7194 13.7883C20.8412 12.5694 19.963 11.3505 19.0718 10.1447C18.2461 9.00437 17.1189 8.44078 15.7164 8.44078C14.2616 8.44078 12.8198 8.45388 11.365 8.44078C9.87081 8.42767 8.7043 9.01748 7.83925 10.2364C6.98731 11.4291 6.10916 12.6087 5.25721 13.8015C5.0344 14.1029 4.77226 14.2602 4.39217 14.2471C3.74993 14.234 3.1077 14.2471 2.46547 14.2471C1.92809 14.2471 1.5742 14.5748 1.5742 15.0466C1.5742 15.5184 1.94119 15.833 2.47857 15.833C3.36984 15.833 4.24799 15.8199 5.13925 15.833C5.87323 15.8461 6.43683 15.5447 6.86935 14.9549C7.43294 14.1553 7.99653 13.3689 8.57323 12.5694C8.84848 12.1893 9.16304 12.0714 9.51692 12.1762C9.89702 12.2942 10.0805 12.5825 10.0805 13.0544C10.0805 14.1553 10.0674 15.2694 10.0674 16.3704ZM10.9718 25.4141C12.7674 25.4141 14.5499 25.4272 16.3456 25.401C16.5946 25.401 16.8698 25.3092 17.0795 25.1782C17.4072 24.9684 17.5121 24.6146 17.4334 24.2214C17.3417 23.7757 17.0402 23.5267 16.5946 23.4087C13.7897 22.6485 10.9718 21.8752 8.16692 21.1019C7.28877 20.866 6.42372 20.6301 5.50624 20.6694C4.24799 20.7087 3.22566 21.7442 3.21255 23.0024C3.19945 24.3262 4.24799 25.401 5.58488 25.4141C7.38051 25.4272 9.17615 25.4141 10.9718 25.4141ZM18.849 25.4141C19.7009 25.4141 20.5266 25.4141 21.3524 25.4141C22.7417 25.4141 23.8033 24.3655 23.7902 23.0155C23.7771 21.6917 22.7024 20.6432 21.3261 20.6694C20.7888 20.6825 20.2383 20.7612 19.714 20.8791C18.6655 21.1282 17.63 21.4296 16.5946 21.718C17.4203 21.9277 18.1543 22.2684 18.6261 23.0155C19.098 23.7757 19.1504 24.5752 18.849 25.4141ZM13.5014 1.58592C12.0596 1.58592 10.8669 2.76553 10.8538 4.20728C10.8538 5.64903 12.0203 6.84175 13.4752 6.85485C14.93 6.86796 16.1359 5.67524 16.1359 4.22039C16.1359 2.76553 14.9562 1.58592 13.5014 1.58592Z" fill="#898989"/>
</svg>
