<svg width="21" height="21" viewBox="0 0 21 21" fill="none" xmlns="http://www.w3.org/2000/svg">
<path d="M10.4054 0.251985C10.5383 0.287332 10.6775 0.322678 10.8104 0.369807C11.6332 0.64669 12.1395 1.33595 12.1459 2.19606C12.1522 2.67324 12.1522 3.15042 12.1459 3.63349C12.1395 3.78666 12.1965 3.84557 12.3484 3.89859C14.8991 4.7587 16.4877 6.42 17.0636 8.88838C17.1712 9.3361 17.1839 9.80739 17.1965 10.2669C17.2219 11.1741 17.1902 12.0755 17.2282 12.9827C17.2852 14.32 17.7282 15.5512 18.4687 16.6941C19.013 17.5366 19.5573 18.3849 20.1016 19.2273C20.2219 19.4158 20.2978 19.5984 20.1713 19.8046C20.051 20.0108 19.8421 20.0462 19.6016 20.0462C13.2725 20.0462 6.94963 20.0462 0.620467 20.0462C0.386288 20.0462 0.177426 20.0049 0.0508424 19.7987C-0.0694117 19.5926 0.000209063 19.4099 0.120463 19.2214C0.658442 18.3967 1.18376 17.566 1.72174 16.7471C2.6015 15.404 3.02555 13.9547 3.02555 12.3818C3.02555 11.616 3.01922 10.8501 3.02555 10.0843C3.06985 7.24475 4.9686 4.81172 7.8547 3.89859C8.03192 3.84557 8.08255 3.77488 8.08255 3.60404C8.07622 3.05027 8.0509 2.4965 8.10154 1.94863C8.17749 1.09442 8.8104 0.469957 9.71548 0.287332C9.75345 0.281441 9.7851 0.263767 9.82307 0.246094C10.0256 0.251985 10.2155 0.251985 10.4054 0.251985Z" fill="#888888"/>
</svg>
