<svg width="20" height="22" viewBox="0 0 20 22" fill="none" xmlns="http://www.w3.org/2000/svg">
<g clip-path="url(#clip0_1_25229)">
<path d="M19.9997 4.23041C19.9062 4.43654 19.8189 4.64892 19.7129 4.84881C19.6693 4.93002 19.5882 4.98623 19.5259 5.05494C15.8974 8.68414 12.269 12.3133 8.65305 15.9488C8.43485 16.1674 8.18547 16.3235 7.89245 16.4235C6.40866 16.9107 4.92487 17.4104 3.44108 17.9039C3.173 17.9914 2.91115 18.0351 2.64308 17.9289C2.12562 17.729 1.88248 17.1981 2.06327 16.6421C2.53709 15.1992 3.02961 13.7625 3.49096 12.3133C3.63435 11.8573 3.87125 11.495 4.20168 11.164C7.78647 7.591 11.3588 4.00554 14.9311 0.426321C15.4984 -0.142107 16.0221 -0.142107 16.5895 0.426321C17.5932 1.432 18.5969 2.43768 19.6007 3.43711C19.8127 3.64949 19.9498 3.8931 19.9997 4.23041ZM17.5496 4.2554C16.9199 3.61826 16.3401 3.03734 15.7478 2.44393C15.7166 2.47516 15.673 2.50639 15.6356 2.54387C12.2815 5.90446 8.92736 9.26505 5.57948 12.6319C5.49844 12.7131 5.44233 12.8193 5.40492 12.9255C5.14931 13.6688 4.90617 14.4184 4.65679 15.1617C4.63185 15.2304 4.61938 15.3054 4.58821 15.4116C4.66302 15.3928 4.70043 15.3803 4.74407 15.3678C5.52337 15.1055 6.30891 14.8494 7.08821 14.5808C7.20667 14.5371 7.31889 14.4496 7.40617 14.3622C10.7229 11.0453 14.0271 7.72843 17.3438 4.41156C17.3999 4.34909 17.481 4.30537 17.5496 4.2554Z" fill="#898989"/>
<path d="M9.48352 19.9961C12.2828 19.9961 15.0758 19.9961 17.875 19.9961C18.3239 19.9961 18.6606 20.1647 18.8601 20.577C19.1406 21.1579 18.7915 21.845 18.1556 21.97C18.0371 21.995 17.9062 22.0012 17.7815 22.0012C12.2391 22.0012 6.70297 22.0012 1.16058 21.995C0.929902 21.995 0.674291 21.9387 0.468555 21.8325C0.0820217 21.6327 -0.0800731 21.1642 0.0259119 20.7457C0.131897 20.3396 0.499727 20.0336 0.917433 20.0023C1.00472 19.9961 1.08576 20.0023 1.17304 20.0023C3.95359 19.9961 6.71544 19.9961 9.48352 19.9961Z" fill="#898989"/>
</g>
<defs>
<clipPath id="clip0_1_25229">
<rect width="20" height="22" fill="white"/>
</clipPath>
</defs>
</svg>
