<svg width="22" height="21" viewBox="0 0 22 21" fill="none" xmlns="http://www.w3.org/2000/svg">
<g clip-path="url(#clip0_1_25240)">
<path d="M22.0006 3.39235C21.9254 3.52076 21.8663 3.65987 21.7803 3.77222C21.5816 4.02904 21.2916 4.10929 20.9801 4.10929C20.2764 4.10929 19.5782 4.11464 18.8746 4.10394C18.6973 4.09859 18.6168 4.15745 18.5523 4.32331C18.0635 5.60203 16.8604 6.40993 15.5069 6.38318C14.2608 6.36178 13.0738 5.54318 12.6387 4.38216C12.5582 4.1628 12.4561 4.09859 12.2305 4.09859C8.53523 4.10394 4.83992 4.10394 1.14997 4.10394C1.02644 4.10394 0.908275 4.09859 0.78474 4.08254C0.317455 4.02369 -0.0155528 3.62241 0.000560436 3.16229C0.0166737 2.70216 0.376537 2.32764 0.843822 2.28484C0.935131 2.27413 1.03181 2.27948 1.12312 2.27948C4.82917 2.27948 8.5406 2.27948 12.2467 2.28484C12.4615 2.28484 12.5528 2.22598 12.628 2.02802C13.2296 0.471077 14.9215 -0.352872 16.5167 0.144708C17.4942 0.449676 18.1817 1.09706 18.5523 2.05477C18.6221 2.23133 18.6973 2.29019 18.8907 2.28484C19.5406 2.27413 20.1959 2.29554 20.8458 2.27413C21.4151 2.25273 21.8126 2.45605 22.0059 3.00713C22.0006 3.13554 22.0006 3.26394 22.0006 3.39235ZM15.5821 4.55872C16.3394 4.55872 16.9678 3.93808 16.9571 3.18904C16.9517 2.44534 16.3341 1.83006 15.5875 1.83006C14.8355 1.82471 14.2125 2.4507 14.2125 3.20509C14.2178 3.95413 14.8248 4.55872 15.5821 4.55872Z" fill="#898989"/>
<path d="M22.0003 17.9885C21.8069 18.5395 21.4095 18.7428 20.8401 18.7214C20.1849 18.7 19.5242 18.7214 18.8636 18.7107C18.6917 18.7054 18.6219 18.7642 18.5574 18.9194C18.1062 20.059 17.2684 20.7439 16.0599 20.9579C14.658 21.204 13.1648 20.3533 12.6546 19.0264C12.5579 18.7803 12.4505 18.7054 12.1873 18.7054C8.4705 18.7161 4.75371 18.7107 1.04228 18.7107C0.505173 18.7107 0.156052 18.47 0.0378878 18.0152C-0.0910185 17.5176 0.236618 16.9933 0.746872 16.9077C0.870407 16.8863 1.00468 16.8809 1.13359 16.8809C4.85039 16.8809 8.56718 16.8756 12.2786 16.8863C12.4773 16.8863 12.5579 16.8221 12.6277 16.6455C13.3958 14.6659 15.7806 13.9811 17.4939 15.2437C17.9935 15.6129 18.3587 16.0944 18.5628 16.683C18.6165 16.8381 18.6917 16.8863 18.8582 16.8863C19.5081 16.8756 20.1634 16.9023 20.8133 16.8756C21.388 16.8542 21.8016 17.0414 22.0057 17.5979C22.0003 17.7316 22.0003 17.86 22.0003 17.9885ZM14.2122 17.7958C14.2068 18.5502 14.8299 19.1762 15.5818 19.1762C16.3284 19.1762 16.9407 18.5663 16.9568 17.8172C16.9729 17.0735 16.3392 16.4422 15.5818 16.4422C14.8299 16.4422 14.2176 17.0468 14.2122 17.7958Z" fill="#898989"/>
<path d="M22.0008 10.667C21.8182 11.2288 21.4261 11.416 20.8514 11.4107C17.156 11.4 13.4661 11.4053 9.77079 11.4C9.55057 11.4 9.44852 11.4588 9.36796 11.6675C8.76639 13.2298 7.04764 14.0537 5.4578 13.5401C4.49637 13.2298 3.82499 12.5931 3.45975 11.6514C3.38456 11.4588 3.29325 11.4 3.08915 11.4C2.34257 11.4107 1.60135 11.4214 0.854773 11.3946C0.161902 11.3732 -0.230188 10.5921 0.145788 10.0089C0.339148 9.70928 0.629187 9.58087 0.983679 9.58087C1.67655 9.58622 2.37479 9.57017 3.06766 9.58622C3.28788 9.59157 3.38456 9.52737 3.46512 9.31871C4.06132 7.76177 5.78544 6.93247 7.37528 7.45145C8.32596 7.76177 9.00272 8.38775 9.36259 9.31871C9.44315 9.52737 9.5452 9.58622 9.76542 9.58622C13.4607 9.58087 17.156 9.58622 20.846 9.57552C21.4207 9.57552 21.8128 9.76278 21.9954 10.3192C22.0008 10.4423 22.0008 10.5546 22.0008 10.667ZM7.78348 10.5065C7.78886 9.75208 7.17118 9.1261 6.41386 9.1261C5.66727 9.1261 5.05497 9.73603 5.03886 10.4851C5.02811 11.2288 5.6619 11.8655 6.41386 11.8655C7.16581 11.8655 7.77811 11.2555 7.78348 10.5065Z" fill="#898989"/>
</g>
<defs>
<clipPath id="clip0_1_25240">
<rect width="22" height="21" fill="white"/>
</clipPath>
</defs>
</svg>
