<svg width="26" height="13" viewBox="0 0 26 13" fill="none" xmlns="http://www.w3.org/2000/svg">
<path d="M3.08904 13C2.75718 12.8348 2.59464 12.5527 2.47951 12.2017C1.68711 9.80678 0.8744 7.42563 0.0752338 5.03071C-0.114399 4.45951 0.0616886 4.081 0.630587 3.88831C1.93093 3.4341 3.23126 2.97989 4.53838 2.53257C5.175 2.31234 5.49331 2.47063 5.73712 3.11753C5.75067 3.15882 5.77099 3.19323 5.79131 3.22764C6.07575 3.13129 6.22475 2.91795 6.37375 2.67709C8.22944 -0.289033 12.1779 -0.887763 14.8463 1.39016C14.9546 1.48651 15.1239 1.54845 15.2729 1.54845C15.8622 1.56909 16.4581 1.54845 17.0474 1.55533C17.9346 1.56909 18.6254 1.94072 19.113 2.69773C19.1401 2.73902 19.1672 2.78032 19.2078 2.82849C20.1628 2.18159 21.0974 1.54156 22.0388 0.901544C23.1156 0.178939 24.3482 0.261523 25.2287 1.12177C25.5944 1.47275 25.8246 1.90631 25.9398 2.40869C25.9533 2.46375 25.9736 2.5188 25.994 2.57386C25.994 2.81473 25.994 3.05559 25.994 3.29646C25.9804 3.32399 25.9601 3.3584 25.9533 3.38593C25.8314 4.07412 25.486 4.61091 24.9307 5.01695C23.1901 6.27634 21.4563 7.5495 19.6954 8.78826C18.368 9.7242 16.8713 10.2059 15.2526 10.2679C13.5121 10.3298 11.7715 10.378 10.031 10.433C9.43496 10.4537 8.83897 10.4743 8.24299 10.495C8.29717 11.135 8.1414 11.3621 7.55895 11.5686C6.8546 11.8094 6.15025 12.0572 5.45268 12.3049C4.80251 12.532 4.15234 12.7729 3.50217 13.0069C3.35994 13 3.22449 13 3.08904 13ZM6.28571 4.76232C6.74624 6.11806 7.20001 7.46692 7.647 8.81578C7.70118 8.98783 7.80954 8.95342 7.92467 8.95342C10.2815 8.87772 12.6452 8.79514 15.002 8.7332C16.3701 8.69879 17.6501 8.34093 18.7811 7.5495C20.5556 6.30387 22.3097 5.02383 24.0638 3.74379C24.5243 3.40657 24.6056 2.82161 24.294 2.37428C23.9893 1.94072 23.4271 1.83749 22.9666 2.14718C21.822 2.91795 20.6842 3.68873 19.5532 4.47327C19.4787 4.52833 19.411 4.6178 19.3771 4.70726C18.9979 5.77396 18.1852 6.39334 17.0812 6.4071C15.6658 6.42087 14.2571 6.41398 12.8416 6.4071C12.3675 6.4071 12.0356 6.07677 12.0356 5.62944C12.0424 5.189 12.3743 4.86555 12.8551 4.85866C13.1734 4.85178 13.4985 4.85866 13.8168 4.85866C14.9004 4.85866 15.9841 4.86555 17.0677 4.85866C17.5147 4.85866 17.8465 4.58339 17.9346 4.17735C18.0565 3.59927 17.6569 3.11753 17.0338 3.11065C16.3295 3.10377 15.6319 3.09689 14.9275 3.11065C14.5618 3.11753 14.2909 3.00054 14.0268 2.73902C12.1914 0.915308 9.15051 1.21123 7.75536 3.39281C7.38964 3.95713 6.98328 4.39069 6.40761 4.6935C6.36698 4.70038 6.33989 4.72102 6.28571 4.76232ZM3.77307 11.2382C4.70092 10.9148 5.60167 10.6051 6.53629 10.2816C5.85226 8.24458 5.175 6.22817 4.48419 4.19111C3.54958 4.51457 2.64205 4.82425 1.72097 5.14771C2.41178 7.19164 3.08227 9.20117 3.77307 11.2382Z" fill="#898989"/>
</svg>
