<svg width="23" height="24" viewBox="0 0 23 24" fill="none" xmlns="http://www.w3.org/2000/svg">
<path d="M15.1969 11.3947C16.9519 9.73871 17.6204 7.68628 16.9866 5.31262L16.9866 5.31258C16.6674 4.12172 16.113 3.17061 15.3441 2.45723C14.5753 1.7439 13.5946 1.27051 12.4263 1.03123L12.4263 1.03122L12.4254 1.03105C12.3476 1.01663 12.2686 1.00367 12.1902 0.990803L12.19 0.990764C12.1113 0.977858 12.0332 0.965051 11.9566 0.950839L11.9568 0.95H11.9475H11.9457H11.9439H11.9422H11.9404H11.9386H11.9368H11.9351H11.9333H11.9315H11.9297H11.9279H11.9262H11.9244H11.9226H11.9208H11.9191H11.9173H11.9155H11.9137H11.9119H11.9102H11.9084H11.9066H11.9048H11.9031H11.9013H11.8995H11.8977H11.896H11.8942H11.8924H11.8906H11.8888H11.8871H11.8853H11.8835H11.8817H11.88H11.8782H11.8764H11.8746H11.8728H11.8711H11.8693H11.8675H11.8657H11.864H11.8622H11.8604H11.8586H11.8569H11.8551H11.8533H11.8515H11.8497H11.848H11.8462H11.8444H11.8426H11.8409H11.8391H11.8373H11.8355H11.8337H11.832H11.8302H11.8284H11.8266H11.8249H11.8231H11.8213H11.8195H11.8178H11.816H11.8142H11.8124H11.8106H11.8089H11.8071H11.8053H11.8035H11.8018H11.8H11.7982H11.7964H11.7947H11.7929H11.7911H11.7893H11.7875H11.7858H11.784H11.7822H11.7804H11.7787H11.7769H11.7751H11.7733H11.7715H11.7698H11.768H11.7662H11.7644H11.7627H11.7609H11.7591H11.7573H11.7556H11.7538H11.752H11.7502H11.7484H11.7467H11.7449H11.7431H11.7413H11.7396H11.7378H11.736H11.7342H11.7324H11.7307H11.7289H11.7271H11.7253H11.7236H11.7218H11.72H11.7182H11.7165H11.7147H11.7129H11.7111H11.7093H11.7076H11.7058H11.704H11.7022H11.7005H11.6987H11.6969H11.6951H11.6934H11.6916H11.6898H11.688H11.6862H11.6845H11.6827H11.6809H11.6791H11.6774H11.6756H11.6738H11.672H11.6702H11.6685H11.6667H11.6649H11.6631H11.6614H11.6596H11.6578H11.656H11.6543H11.6525H11.6507H11.6489H11.6471H11.6454H11.6436H11.6418H11.64H11.6383H11.6365H11.6347H11.6329H11.6311H11.6294H11.6276H11.6258H11.624H11.6223H11.6205H11.6187H11.6169H11.6152H11.6134H11.6116H11.6098H11.608H11.6063H11.6045H11.6027H11.6009H11.5992H11.5974H11.5956H11.5938H11.592H11.5903H11.5885H11.5867H11.5849H11.5832H11.5814H11.5796H11.5778H11.5761H11.5743H11.5725H11.5707H11.5689H11.5672H11.5654H11.5636H11.5618H11.5601H11.5583H11.5565H11.5547H11.553H11.5512H11.5494H11.5476H11.5458H11.5441H11.5423H11.5405H11.5387H11.537H11.5352H11.5334H11.5316H11.5298H11.5281H11.5263H11.5245H11.5227H11.521H11.5192H11.5174H11.5156H11.5139H11.5121H11.5103H11.5085H11.5067H11.505H11.5032H11.5014H11.4996H11.4979H11.4961H11.4943H11.4925H11.4907H11.489H11.4872H11.4854H11.4836H11.4819H11.4801H11.4783H11.4765H11.4748H11.473H11.4712H11.4694H11.4676H11.4659H11.4641H11.4623H11.4605H11.4588H11.457H11.4552H11.4534H11.4517H11.4499H11.4481H11.4463H11.4445H11.4428H11.441H11.4392H11.4374H11.4357H11.4339H11.4321H11.4303H11.4285H11.4268H11.425H11.4232H11.4214H11.4197H11.4179H11.4161H11.4143H11.4126H11.4108H11.409H11.4072H11.4054H11.4037H11.4019H11.4001H11.3983H11.3966H11.3948H11.393H11.3912H11.3894H11.3877H11.3859H11.3841H11.3823H11.3806H11.3788H11.377H11.3752H11.3735H11.3717H11.3699H11.3681H11.3663H11.3646H11.3628H11.361H11.3592H11.3575H11.3557H11.3539H11.3521H11.3504H11.3486H11.3468H11.345H11.3432H11.3415H11.3397H11.3379H11.3361H11.3344H11.3326H11.3308H11.329H11.3272H11.3255H11.3237H11.3219H11.3201H11.3184H11.3166H11.3148H11.313H11.3113H11.3095H11.3077H11.3059H11.3041H11.3024H11.3006H11.2988H11.297H11.2953H11.2935H11.2917H11.2899H11.2881H11.2864H11.2846H11.2828H11.281H11.2793H11.2775H11.2757H11.2739H11.2722H11.2704H11.2686H11.2668H11.265H11.2633H11.2615H11.2597H11.2579H11.2562H11.2544H11.2526H11.2508H11.2491H11.2473H11.2455H11.2437H11.2419H11.2402H11.2384H11.2366H11.2348H11.2331H11.2313H11.2295H11.2277H11.2259H11.2242H11.2224H11.2206H11.2188H11.2171H11.2153H11.2135H11.2117H11.21H11.2082H11.2064H11.2046H11.2028H11.2011H11.1993H11.1975H11.1957H11.194H11.1922H11.1904H11.1886H11.1868H11.1851H11.1833H11.1815H11.1797H11.178H11.1762H11.1744H11.1726H11.1709H11.1691H11.1673H11.1655H11.1637H11.162H11.1602H11.1584H11.1566H11.1549H11.1531H11.1513H11.1495H11.1477H11.146H11.1442H11.1424H11.1406H11.1389H11.1371H11.1353H11.1335H11.1318H11.13H11.1282H11.1264H11.1246H11.1229H11.1211H11.1193H11.1175H11.1158H11.114H11.1122H11.1104H11.1087H11.1069H11.1051H11.1033H11.1015H11.0998H11.098H11.0962H11.0944H11.0927H11.0909H11.0891H11.0873H11.0855H11.0838H11.082H11.0802H11.0784H11.0767H11.0749H11.0731H11.0713H11.0696H11.0678H11.066H11.0642H11.0624H11.0607H11.0589H11.0571H11.0553H11.0536H11.0518H11.05H11.0482H11.0464H11.0447H11.0429H11.0411H11.0393H11.0376V0.948594L8.17543 11.6333L8.1427 11.6711C8.14295 11.6713 8.14319 11.6716 8.14343 11.6718C8.16126 11.6872 8.17789 11.7033 8.1979 11.7226C8.19834 11.723 8.19878 11.7234 8.19922 11.7239C8.15851 11.7394 8.11812 11.7546 8.07801 11.7698C7.85353 11.8547 7.63812 11.9361 7.42649 12.0348C3.97057 13.6344 1.82623 16.3519 1.04004 20.2056L1.04002 20.2057C0.951503 20.6425 0.893902 21.1001 1.03584 21.5484L1.03594 21.5487C1.28372 22.3151 1.79296 22.7976 2.54871 22.9968L2.54889 22.9968C2.58966 23.0074 2.631 23.0235 2.67566 23.0409L2.68441 23.0443H2.69381H2.72822H2.76263H2.79705H2.83146H2.86587H2.90029H2.9347H2.96911H3.00353H3.03794H3.07235H3.10676H3.14118H3.17559H3.21H3.24442H3.27883H3.31324H3.34766H3.38207H3.41648H3.4509H3.48531H3.51972H3.55413H3.58855H3.62296H3.65737H3.69179H3.7262H3.76061H3.79503H3.82944H3.86385H3.89827H3.93268H3.96709H4.0015H4.03592H4.07033H4.10474H4.13916H4.17357H4.20798H4.2424H4.27681H4.31122H4.34564H4.38005H4.41446H4.44887H4.48329H4.5177H4.55211H4.58653H4.62094H4.65535H4.68977H4.72418H4.75859H4.79301H4.82742H4.86183H4.89624H4.93066H4.96507H4.99948H5.0339H5.06831H5.10272H5.13714H5.17155H5.20596H5.24038H5.27479H5.3092H5.34361H5.37803H5.41244H5.44685H5.48127H5.51568H5.55009H5.58451H5.61892H5.65333H5.68775H5.72216H5.75657H5.79099H5.8254H5.85981H5.89422H5.92864H5.96305H5.99746H6.03188H6.06629H6.1007H6.13512H6.16953H6.20394H6.23836H6.27277H6.30718H6.34159H6.37601H6.41042H6.44483H6.47925H6.51366H6.54807H6.58249H6.6169H6.65131H6.68573H6.72014H6.75455H6.78896H6.82338H6.85779H6.8922H6.92662H6.96103H6.99544H7.02986H7.06427H7.09868H7.1331H7.16751H7.20192H7.23633H7.27075H7.30516H7.33957H7.37399H7.4084H7.44281H7.47723H7.51164H7.54605H7.58047H7.61488H7.64929H7.6837H7.71812H7.75253H7.78694H7.82136H7.85577H7.89018H7.9246H7.95901H7.99342H8.02784H8.06225H8.09666H8.13107H8.16549H8.1999H8.23431H8.26873H8.30314H8.33755H8.37197H8.40638H8.44079H8.47521H8.50962H8.54403H8.57844H8.61286H8.64727H8.68168H8.7161H8.75051H8.78492H8.81934H8.85375H8.88816H8.92258H8.95699H8.9914H9.02582H9.06023H9.09464H9.12905H9.16347H9.19788H9.23229H9.26671H9.30112H9.33553H9.36995H9.40436H9.43877H9.47318H9.5076H9.54201H9.57642H9.61084H9.64525H9.67966H9.71408H9.74849H9.7829H9.81732H9.85173H9.88614H9.92056H9.95497H9.98938H10.0238H10.0582H10.0926H10.127H10.1614H10.1959H10.2303H10.2647H10.2991H10.3335H10.3679H10.4023H10.4368H10.4712H10.5056H10.54H10.5744H10.6088H10.6432H10.6776H10.7121H10.7465H10.7809H10.8153H10.8497H10.8841H10.9185H10.9529H10.9874H11.0218H11.0562H11.0906H11.125H11.1594H11.1938H11.2283H11.2627H11.2971H11.3315H11.3659H11.4003H11.4347H11.4691H11.5036H11.538H11.5724H11.6068H11.6412H11.6756H11.71H11.7444H11.7789H11.8133H11.8477H11.8821H11.9165H11.9509H11.9853H12.0198H12.0542H12.0886H12.123H12.1574H12.1918H12.2262H12.2606H12.2951H12.3295H12.3639H12.3983H12.4327H12.4671H12.5015H12.5359H12.5704H12.6048H12.6392H12.6736H12.708H12.7424H12.7768H12.8113H12.8457H12.8801H12.9145H12.9489H12.9833H13.0177H13.0521H13.0866H13.121H13.1554H13.1898H13.2242H13.2586H13.293H13.3275H13.3619H13.3963H13.4307H13.4651H13.4995H13.5339H13.5683H13.6028H13.6372H13.6716H13.706H13.7404H13.7748H13.8092H13.8436H13.8781H13.9125H13.9469H13.9813H14.0157H14.0501H14.0845H14.119H14.1534H14.1878H14.2222H14.2566H14.291H14.3254H14.3598H14.3943H14.4287H14.4631H14.4975H14.5319H14.5663H14.6007H14.6351H14.6696H14.704H14.7384H14.7728H14.8072H14.8416H14.876H14.9105H14.9449H14.9793H15.0137H15.0481H15.0825H15.1169H15.1513H15.1858H15.2202H15.2546H15.289H15.3234H15.3578H15.3922H15.4266H15.4611H15.4955H15.5299H15.5643H15.5987H15.6331H15.6675H15.702H15.7364H15.7708H15.8052H15.8396H15.874H15.9084H15.9428H15.9773H16.0117H16.0461H16.0805H16.1149H16.1493H16.1837H16.2181H16.2526H16.287H16.3214H16.3558H16.3902H16.4246H16.459H16.4935H16.5279H16.5623H16.5967H16.6311H16.6655H16.6999H16.7343H16.7688H16.8032H16.8376H16.872H16.9064H16.9408H16.9752H17.0097H17.0441H17.0785H17.1129H17.1473H17.1817H17.2161H17.2505H17.285H17.3194H17.3538H17.3882H17.4226H17.457H17.4914H17.5258H17.5603H17.5947H17.6291H17.6635H17.6979H17.7323H17.7667H17.8012H17.8356H17.87H17.9044H17.9388H17.9732H18.0076H18.042H18.0765H18.1109H18.1453H18.1797H18.2141H18.2485H18.2829H18.3173H18.3518H18.3862H18.4206H18.455H18.4894H18.5238H18.5582H18.5927H18.6271H18.6615H18.6959H18.7303H18.7647H18.7991H18.8335H18.868H18.9024H18.9368H18.9712H19.0056H19.04H19.0744H19.1088H19.1433H19.1777H19.2121H19.2465H19.2809H19.3153H19.3497H19.3842H19.4186H19.453H19.4874H19.5218H19.5562H19.5906H19.625H19.6595H19.6939H19.7283H19.7627H19.7971H19.8315H19.8659H19.9004H19.9348H19.9692H20.0036H20.038H20.0724H20.1068H20.1412H20.1757H20.2101H20.2445H20.2789H20.3133H20.3241L20.334 23.0398C20.4248 22.9986 20.517 22.9624 20.6108 22.9256C20.6736 22.901 20.7371 22.8761 20.8014 22.8492C20.9584 22.7835 21.1135 22.7084 21.2483 22.6041L21.2484 22.6041C21.9439 22.0636 22.1631 21.3101 22.0003 20.4413C21.1976 16.1625 18.7986 13.2837 14.8785 11.759C14.8581 11.75 14.8379 11.7425 14.8194 11.7356L14.8187 11.7354C14.8126 11.7331 14.8066 11.7309 14.8008 11.7287C14.8326 11.7025 14.8651 11.6763 14.898 11.6498C14.9986 11.5687 15.1022 11.4851 15.1969 11.3947ZM15.1969 11.3947C15.197 11.3946 15.197 11.3945 15.1971 11.3945L15.1626 11.3583L15.1969 11.3947C15.1969 11.3947 15.1969 11.3947 15.1969 11.3947ZM8.48503 13.3875L8.48501 13.3875C5.19434 14.6012 3.22538 17.1065 2.56099 20.6945L2.56097 20.6946C2.50911 20.9725 2.53228 21.1461 2.61751 21.2512C2.70241 21.3558 2.86241 21.4089 3.12947 21.4089L8.48503 13.3875ZM8.48503 13.3875C10.2224 12.746 11.8765 12.6241 13.432 12.9861C14.9878 13.3482 16.4483 14.1952 17.7969 15.4963M8.48503 13.3875L17.7969 15.4963M19.9218 21.4089H19.9383C20.1386 21.4089 20.2793 21.3502 20.3633 21.2505L19.9218 21.4089ZM19.9218 21.4089H19.9053M19.9218 21.4089H19.9053M19.9053 21.4089H19.8888M19.9053 21.4089H19.8888M19.8888 21.4089H19.8723M19.8888 21.4089H19.8723M19.8723 21.4089H19.8557M19.8723 21.4089H19.8557M19.8557 21.4089H19.8392M19.8557 21.4089H19.8392M19.8392 21.4089H19.8227M19.8392 21.4089H19.8227M19.8227 21.4089H19.8062M19.8227 21.4089H19.8062M19.8062 21.4089H19.7897M19.8062 21.4089H19.7897M19.7897 21.4089H19.7732M19.7897 21.4089H19.7732M19.7732 21.4089H19.7567M19.7732 21.4089H19.7567M19.7567 21.4089H19.7402M19.7567 21.4089H19.7402M19.7402 21.4089H19.7237M19.7402 21.4089H19.7237M19.7237 21.4089H19.7071M19.7237 21.4089H19.7071M19.7071 21.4089H19.6906M19.7071 21.4089H19.6906M19.6906 21.4089H19.6741M19.6906 21.4089H19.6741M19.6741 21.4089H19.6576M19.6741 21.4089H19.6576M19.6576 21.4089H19.6411M19.6576 21.4089H19.6411M19.6411 21.4089H19.6246M19.6411 21.4089H19.6246M19.6246 21.4089H19.6081M19.6246 21.4089H19.6081M19.6081 21.4089H19.5916M19.6081 21.4089H19.5916M19.5916 21.4089H19.575M19.5916 21.4089H19.575M19.575 21.4089H19.5585M19.575 21.4089H19.5585M19.5585 21.4089H19.542M19.5585 21.4089H19.542M19.542 21.4089H19.5255M19.542 21.4089H19.5255M19.5255 21.4089H19.509M19.5255 21.4089H19.509M19.509 21.4089H19.4925M19.509 21.4089H19.4925M19.4925 21.4089H19.476M19.4925 21.4089H19.476M19.476 21.4089H19.4595M19.476 21.4089H19.4595M19.4595 21.4089H19.443M19.4595 21.4089H19.443M19.443 21.4089H19.4264M19.443 21.4089H19.4264M19.4264 21.4089H19.4099M19.4264 21.4089H19.4099M19.4099 21.4089H19.3934M19.4099 21.4089H19.3934M19.3934 21.4089H19.3769M19.3934 21.4089H19.3769M19.3769 21.4089H19.3604M19.3769 21.4089H19.3604M19.3604 21.4089H19.3439M19.3604 21.4089H19.3439M19.3439 21.4089H19.3274M19.3439 21.4089H19.3274M19.3274 21.4089H19.3109M19.3274 21.4089H19.3109M19.3109 21.4089H19.2943M19.3109 21.4089H19.2943M19.2943 21.4089H19.2778M19.2943 21.4089H19.2778M19.2778 21.4089H19.2613M19.2778 21.4089H19.2613M19.2613 21.4089H19.2448M19.2613 21.4089H19.2448M19.2448 21.4089H19.2283M19.2448 21.4089H19.2283M19.2283 21.4089H19.2118M19.2283 21.4089H19.2118M19.2118 21.4089H19.1953M19.2118 21.4089H19.1953M19.1953 21.4089H19.1788M19.1953 21.4089H19.1788M19.1788 21.4089H19.1623M19.1788 21.4089H19.1623M19.1623 21.4089H19.1457M19.1623 21.4089H19.1457M19.1457 21.4089H19.1292M19.1457 21.4089H19.1292M19.1292 21.4089H19.1127M19.1292 21.4089H19.1127M19.1127 21.4089H19.0962M19.1127 21.4089H19.0962M19.0962 21.4089H19.0797M19.0962 21.4089H19.0797M19.0797 21.4089H19.0632M19.0797 21.4089H19.0632M19.0632 21.4089H19.0467M19.0632 21.4089H19.0467M19.0467 21.4089H19.0302M19.0467 21.4089H19.0302M19.0302 21.4089H19.0136M19.0302 21.4089H19.0136M19.0136 21.4089H18.9971M19.0136 21.4089H18.9971M18.9971 21.4089H18.9806M18.9971 21.4089H18.9806M18.9806 21.4089H18.9641M18.9806 21.4089H18.9641M18.9641 21.4089H18.9476M18.9641 21.4089H18.9476M18.9476 21.4089H18.9311M18.9476 21.4089H18.9311M18.9311 21.4089H18.9146M18.9311 21.4089H18.9146M18.9146 21.4089H18.8981M18.9146 21.4089H18.8981M18.8981 21.4089H18.8815M18.8981 21.4089H18.8815M18.8815 21.4089H18.865M18.8815 21.4089H18.865M18.865 21.4089H18.8485M18.865 21.4089H18.8485M18.8485 21.4089H18.832M18.8485 21.4089H18.832M18.832 21.4089H18.8155M18.832 21.4089H18.8155M18.8155 21.4089H18.799M18.8155 21.4089H18.799M18.799 21.4089H18.7825M18.799 21.4089H18.7825M18.7825 21.4089H18.766M18.7825 21.4089H18.766M18.766 21.4089H18.7495M18.766 21.4089H18.7495M18.7495 21.4089H18.7329M18.7495 21.4089H18.7329M18.7329 21.4089H18.7164M18.7329 21.4089H18.7164M18.7164 21.4089H18.6999M18.7164 21.4089H18.6999M18.6999 21.4089H18.6834M18.6999 21.4089H18.6834M18.6834 21.4089H18.6669M18.6834 21.4089H18.6669M18.6669 21.4089H18.6504M18.6669 21.4089H18.6504M18.6504 21.4089H18.6339M18.6504 21.4089H18.6339M18.6339 21.4089H18.6174M18.6339 21.4089H18.6174M18.6174 21.4089H18.6008M18.6174 21.4089H18.6008M18.6008 21.4089H18.5843M18.6008 21.4089H18.5843M18.5843 21.4089H18.5678M18.5843 21.4089H18.5678M18.5678 21.4089H18.5513M18.5678 21.4089H18.5513M18.5513 21.4089H18.5348M18.5513 21.4089H18.5348M18.5348 21.4089H18.5183M18.5348 21.4089H18.5183M18.5183 21.4089H18.5018M18.5183 21.4089H18.5018M18.5018 21.4089H18.4853M18.5018 21.4089H18.4853M18.4853 21.4089H18.4688M18.4853 21.4089H18.4688M18.4688 21.4089H18.4522M18.4688 21.4089H18.4522M18.4522 21.4089H18.4357M18.4522 21.4089H18.4357M18.4357 21.4089H18.4192M18.4357 21.4089H18.4192M18.4192 21.4089H18.4027M18.4192 21.4089H18.4027M18.4027 21.4089H18.3862M18.4027 21.4089H18.3862M18.3862 21.4089H18.3697M18.3862 21.4089H18.3697M18.3697 21.4089H18.3532M18.3697 21.4089H18.3532M18.3532 21.4089H18.3367M18.3532 21.4089H18.3367M18.3367 21.4089H18.3201M18.3367 21.4089H18.3201M18.3201 21.4089H18.3036M18.3201 21.4089H18.3036M18.3036 21.4089H18.2871M18.3036 21.4089H18.2871M18.2871 21.4089H18.2706M18.2871 21.4089H18.2706M18.2706 21.4089H18.2541M18.2706 21.4089H18.2541M18.2541 21.4089H18.2376M18.2541 21.4089H18.2376M18.2376 21.4089H18.2211M18.2376 21.4089H18.2211M18.2211 21.4089H18.2046M18.2211 21.4089H18.2046M18.2046 21.4089H18.1881M18.2046 21.4089H18.1881M18.1881 21.4089H18.1715M18.1881 21.4089H18.1715M18.1715 21.4089H18.155M18.1715 21.4089H18.155M18.155 21.4089H18.1385M18.155 21.4089H18.1385M18.1385 21.4089H18.122M18.1385 21.4089H18.122M18.122 21.4089H18.1055M18.122 21.4089H18.1055M18.1055 21.4089H18.089M18.1055 21.4089H18.089M18.089 21.4089H18.0725M18.089 21.4089H18.0725M18.0725 21.4089H18.056M18.0725 21.4089H18.056M18.056 21.4089H18.0394M18.056 21.4089H18.0394M18.0394 21.4089H18.0229M18.0394 21.4089H18.0229M18.0229 21.4089H18.0064M18.0229 21.4089H18.0064M18.0064 21.4089H17.9899M18.0064 21.4089H17.9899M17.9899 21.4089H17.9734M17.9899 21.4089H17.9734M17.9734 21.4089H17.9569M17.9734 21.4089H17.9569M17.9569 21.4089H17.9404M17.9569 21.4089H17.9404M17.9404 21.4089H17.9239M17.9404 21.4089H17.9239M17.9239 21.4089H17.9074M17.9239 21.4089H17.9074M17.9074 21.4089H17.8908M17.9074 21.4089H17.8908M17.8908 21.4089H17.8743M17.8908 21.4089H17.8743M17.8743 21.4089H17.8578M17.8743 21.4089H17.8578M17.8578 21.4089H17.8413M17.8578 21.4089H17.8413M17.8413 21.4089H17.8248M17.8413 21.4089H17.8248M17.8248 21.4089H17.8083M17.8248 21.4089H17.8083M17.8083 21.4089H17.7918M17.8083 21.4089H17.7918M17.7918 21.4089H17.7753M17.7918 21.4089H17.7753M17.7753 21.4089H17.7587M17.7753 21.4089H17.7587M17.7587 21.4089H17.7422M17.7587 21.4089H17.7422M17.7422 21.4089H17.7257M17.7422 21.4089H17.7257M17.7257 21.4089H17.7092M17.7257 21.4089H17.7092M17.7092 21.4089H17.6927M17.7092 21.4089H17.6927M17.6927 21.4089H17.6762M17.6927 21.4089H17.6762M17.6762 21.4089H17.6597M17.6762 21.4089H17.6597M17.6597 21.4089H17.6432M17.6597 21.4089H17.6432M17.6432 21.4089H17.6267M17.6432 21.4089H17.6267M17.6267 21.4089H17.6101M17.6267 21.4089H17.6101M17.6101 21.4089H17.5936M17.6101 21.4089H17.5936M17.5936 21.4089H17.5771M17.5936 21.4089H17.5771M17.5771 21.4089H17.5606M17.5771 21.4089H17.5606M17.5606 21.4089H17.5441M17.5606 21.4089H17.5441M17.5441 21.4089H17.5276M17.5441 21.4089H17.5276M17.5276 21.4089H17.5111M17.5276 21.4089H17.5111M17.5111 21.4089H17.4946M17.5111 21.4089H17.4946M17.4946 21.4089H17.478M17.4946 21.4089H17.478M17.478 21.4089H17.4615M17.478 21.4089H17.4615M17.4615 21.4089H17.445M17.4615 21.4089H17.445M17.445 21.4089H17.4285M17.445 21.4089H17.4285M17.4285 21.4089H17.412M17.4285 21.4089H17.412M17.412 21.4089H17.3955M17.412 21.4089H17.3955M17.3955 21.4089H17.379M17.3955 21.4089H17.379M17.379 21.4089H17.3625M17.379 21.4089H17.3625M17.3625 21.4089H17.346M17.3625 21.4089H17.346M17.346 21.4089H17.3294M17.346 21.4089H17.3294M17.3294 21.4089H17.3129M17.3294 21.4089H17.3129M17.3129 21.4089H17.2964M17.3129 21.4089H17.2964M17.2964 21.4089H17.2799M17.2964 21.4089H17.2799M17.2799 21.4089H17.2634M17.2799 21.4089H17.2634M17.2634 21.4089H17.2469M17.2634 21.4089H17.2469M17.2469 21.4089H17.2304M17.2469 21.4089H17.2304M17.2304 21.4089H17.2139M17.2304 21.4089H17.2139M17.2139 21.4089H17.1973M17.2139 21.4089H17.1973M17.1973 21.4089H17.1808M17.1973 21.4089H17.1808M17.1808 21.4089H17.1643M17.1808 21.4089H17.1643M17.1643 21.4089H17.1478M17.1643 21.4089H17.1478M17.1478 21.4089H17.1313M17.1478 21.4089H17.1313M17.1313 21.4089H17.1148M17.1313 21.4089H17.1148M17.1148 21.4089H17.0983M17.1148 21.4089H17.0983M17.0983 21.4089H17.0818M17.0983 21.4089H17.0818M17.0818 21.4089H17.0653M17.0818 21.4089H17.0653M17.0653 21.4089H17.0487M17.0653 21.4089H17.0487M17.0487 21.4089H17.0322M17.0487 21.4089H17.0322M17.0322 21.4089H17.0157M17.0322 21.4089H17.0157M17.0157 21.4089H16.9992M17.0157 21.4089H16.9992M16.9992 21.4089H16.9827M16.9992 21.4089H16.9827M16.9827 21.4089H16.9662M16.9827 21.4089H16.9662M16.9662 21.4089H16.9497M16.9662 21.4089H16.9497M16.9497 21.4089H16.9332M16.9497 21.4089H16.9332M16.9332 21.4089H16.9166M16.9332 21.4089H16.9166M16.9166 21.4089H16.9001M16.9166 21.4089H16.9001M16.9001 21.4089H16.8836M16.9001 21.4089H16.8836M16.8836 21.4089H16.8671M16.8836 21.4089H16.8671M16.8671 21.4089H16.8506M16.8671 21.4089H16.8506M16.8506 21.4089H16.8341M16.8506 21.4089H16.8341M16.8341 21.4089H16.8176M16.8341 21.4089H16.8176M16.8176 21.4089H16.8011M16.8176 21.4089H16.8011M16.8011 21.4089H16.7845M16.8011 21.4089H16.7845M16.7845 21.4089H16.768M16.7845 21.4089H16.768M16.768 21.4089H16.7515M16.768 21.4089H16.7515M16.7515 21.4089H16.735M16.7515 21.4089H16.735M16.735 21.4089H16.7185M16.735 21.4089H16.7185M16.7185 21.4089H16.702M16.7185 21.4089H16.702M16.702 21.4089H16.6855M16.702 21.4089H16.6855M16.6855 21.4089H16.669M16.6855 21.4089H16.669M16.669 21.4089H16.6525M16.669 21.4089H16.6525M16.6525 21.4089H16.6359M16.6525 21.4089H16.6359M16.6359 21.4089H16.6194M16.6359 21.4089H16.6194M16.6194 21.4089H16.6029M16.6194 21.4089H16.6029M16.6029 21.4089H16.5864M16.6029 21.4089H16.5864M16.5864 21.4089H16.5699M16.5864 21.4089H16.5699M16.5699 21.4089H16.5534M16.5699 21.4089H16.5534M16.5534 21.4089H16.5369M16.5534 21.4089H16.5369M16.5369 21.4089H16.5204M16.5369 21.4089H16.5204M16.5204 21.4089H16.5038M16.5204 21.4089H16.5038M16.5038 21.4089H16.4873M16.5038 21.4089H16.4873M16.4873 21.4089H16.4708M16.4873 21.4089H16.4708M16.4708 21.4089H16.4543M16.4708 21.4089H16.4543M16.4543 21.4089H16.4378M16.4543 21.4089H16.4378M16.4378 21.4089H16.4213M16.4378 21.4089H16.4213M16.4213 21.4089H16.4048M16.4213 21.4089H16.4048M16.4048 21.4089H16.3883M16.4048 21.4089H16.3883M16.3883 21.4089H16.3718M16.3883 21.4089H16.3718M16.3718 21.4089H16.3552M16.3718 21.4089H16.3552M16.3552 21.4089H16.3387M16.3552 21.4089H16.3387M16.3387 21.4089H16.3222M16.3387 21.4089H16.3222M16.3222 21.4089H16.3057M16.3222 21.4089H16.3057M16.3057 21.4089H16.2892M16.3057 21.4089H16.2892M16.2892 21.4089H16.2727M16.2892 21.4089H16.2727M16.2727 21.4089H16.2562M16.2727 21.4089H16.2562M16.2562 21.4089H16.2397M16.2562 21.4089H16.2397M16.2397 21.4089H16.2231M16.2397 21.4089H16.2231M16.2231 21.4089H16.2066M16.2231 21.4089H16.2066M16.2066 21.4089H16.1901M16.2066 21.4089H16.1901M16.1901 21.4089H16.1736M16.1901 21.4089H16.1736M16.1736 21.4089H16.1571M16.1736 21.4089H16.1571M16.1571 21.4089H16.1406M16.1571 21.4089H16.1406M16.1406 21.4089H16.1241M16.1406 21.4089H16.1241M16.1241 21.4089H16.1076M16.1241 21.4089H16.1076M16.1076 21.4089H16.0911M16.1076 21.4089H16.0911M16.0911 21.4089H16.0745M16.0911 21.4089H16.0745M16.0745 21.4089H16.058M16.0745 21.4089H16.058M16.058 21.4089H16.0415M16.058 21.4089H16.0415M16.0415 21.4089H16.025M16.0415 21.4089H16.025M16.025 21.4089H16.0085M16.025 21.4089H16.0085M16.0085 21.4089H15.992M16.0085 21.4089H15.992M15.992 21.4089H15.9755M15.992 21.4089H15.9755M15.9755 21.4089H15.959M15.9755 21.4089H15.959M15.959 21.4089H15.9424M15.959 21.4089H15.9424M15.9424 21.4089H15.9259M15.9424 21.4089H15.9259M15.9259 21.4089H15.9094M15.9259 21.4089H15.9094M15.9094 21.4089H15.8929M15.9094 21.4089H15.8929M15.8929 21.4089H15.8764M15.8929 21.4089H15.8764M15.8764 21.4089H15.8599M15.8764 21.4089H15.8599M15.8599 21.4089H15.8434M15.8599 21.4089H15.8434M15.8434 21.4089H15.8269M15.8434 21.4089H15.8269M15.8269 21.4089H15.8104M15.8269 21.4089H15.8104M15.8104 21.4089H15.7938M15.8104 21.4089H15.7938M15.7938 21.4089H15.7773M15.7938 21.4089H15.7773M15.7773 21.4089H15.7608M15.7773 21.4089H15.7608M15.7608 21.4089H15.7443M15.7608 21.4089H15.7443M15.7443 21.4089H15.7278M15.7443 21.4089H15.7278M15.7278 21.4089H15.7113M15.7278 21.4089H15.7113M15.7113 21.4089H15.6948M15.7113 21.4089H15.6948M15.6948 21.4089H15.6783M15.6948 21.4089H15.6783M15.6783 21.4089H15.6617M15.6783 21.4089H15.6617M15.6617 21.4089H15.6452M15.6617 21.4089H15.6452M15.6452 21.4089H15.6287M15.6452 21.4089H15.6287M15.6287 21.4089H15.6122M15.6287 21.4089H15.6122M15.6122 21.4089H15.5957M15.6122 21.4089H15.5957M15.5957 21.4089H15.5792M15.5957 21.4089H15.5792M15.5792 21.4089H15.5627M15.5792 21.4089H15.5627M15.5627 21.4089H15.5462M15.5627 21.4089H15.5462M15.5462 21.4089H15.5297M15.5462 21.4089H15.5297M15.5297 21.4089H15.5131M15.5297 21.4089H15.5131M15.5131 21.4089H15.4966M15.5131 21.4089H15.4966M15.4966 21.4089H15.4801M15.4966 21.4089H15.4801M15.4801 21.4089H15.4636M15.4801 21.4089H15.4636M15.4636 21.4089H15.4471M15.4636 21.4089H15.4471M15.4471 21.4089H15.4306M15.4471 21.4089H15.4306M15.4306 21.4089H15.4141M15.4306 21.4089H15.4141M15.4141 21.4089H15.3976M15.4141 21.4089H15.3976M15.3976 21.4089H15.381M15.3976 21.4089H15.381M15.381 21.4089H15.3645M15.381 21.4089H15.3645M15.3645 21.4089H15.348M15.3645 21.4089H15.348M15.348 21.4089H15.3315M15.348 21.4089H15.3315M15.3315 21.4089H15.315M15.3315 21.4089H15.315M15.315 21.4089H15.2985M15.315 21.4089H15.2985M15.2985 21.4089H15.282M15.2985 21.4089H15.282M15.282 21.4089H15.2655M15.282 21.4089H15.2655M15.2655 21.4089H15.249M15.2655 21.4089H15.249M15.249 21.4089H15.2324M15.249 21.4089H15.2324M15.2324 21.4089H15.2159M15.2324 21.4089H15.2159M15.2159 21.4089H15.1994M15.2159 21.4089H15.1994M15.1994 21.4089H15.1829M15.1994 21.4089H15.1829M15.1829 21.4089H15.1664M15.1829 21.4089H15.1664M15.1664 21.4089H15.1499M15.1664 21.4089H15.1499M15.1499 21.4089H15.1334M15.1499 21.4089H15.1334M15.1334 21.4089H15.1169M15.1334 21.4089H15.1169M15.1169 21.4089H15.1003M15.1169 21.4089H15.1003M15.1003 21.4089H15.0838M15.1003 21.4089H15.0838M15.0838 21.4089H15.0673M15.0838 21.4089H15.0673M15.0673 21.4089H15.0508M15.0673 21.4089H15.0508M15.0508 21.4089H15.0343M15.0508 21.4089H15.0343M15.0343 21.4089H15.0178M15.0343 21.4089H15.0178M15.0178 21.4089H15.0013M15.0178 21.4089H15.0013M15.0013 21.4089H14.9848M15.0013 21.4089H14.9848M14.9848 21.4089H14.9682M14.9848 21.4089H14.9682M14.9682 21.4089H14.9517M14.9682 21.4089H14.9517M14.9517 21.4089H14.9352M14.9517 21.4089H14.9352M14.9352 21.4089H14.9187M14.9352 21.4089H14.9187M14.9187 21.4089H14.9022M14.9187 21.4089H14.9022M14.9022 21.4089H14.8857M14.9022 21.4089H14.8857M14.8857 21.4089H14.8692M14.8857 21.4089H14.8692M14.8692 21.4089H14.8527M14.8692 21.4089H14.8527M14.8527 21.4089H14.8362M14.8527 21.4089H14.8362M14.8362 21.4089H14.8196M14.8362 21.4089H14.8196M14.8196 21.4089H14.8031M14.8196 21.4089H14.8031M14.8031 21.4089H14.7866M14.8031 21.4089H14.7866M14.7866 21.4089H14.7701M14.7866 21.4089H14.7701M14.7701 21.4089H14.7536M14.7701 21.4089H14.7536M14.7536 21.4089H14.7371M14.7536 21.4089H14.7371M14.7371 21.4089H14.7206M14.7371 21.4089H14.7206M14.7206 21.4089H14.7041M14.7206 21.4089H14.7041M14.7041 21.4089H14.6875M14.7041 21.4089H14.6875M14.6875 21.4089H14.671M14.6875 21.4089H14.671M14.671 21.4089H14.6545M14.671 21.4089H14.6545M14.6545 21.4089H14.638M14.6545 21.4089H14.638M14.638 21.4089H14.6215M14.638 21.4089H14.6215M14.6215 21.4089H14.605M14.6215 21.4089H14.605M14.605 21.4089H14.5885M14.605 21.4089H14.5885M14.5885 21.4089H14.572M14.5885 21.4089H14.572M14.572 21.4089H14.5555M14.572 21.4089H14.5555M14.5555 21.4089H14.5389M14.5555 21.4089H14.5389M14.5389 21.4089H14.5224M14.5389 21.4089H14.5224M14.5224 21.4089H14.5059M14.5224 21.4089H14.5059M14.5059 21.4089H14.4894M14.5059 21.4089H14.4894M14.4894 21.4089H14.4729M14.4894 21.4089H14.4729M14.4729 21.4089H14.4564M14.4729 21.4089H14.4564M14.4564 21.4089H14.4399M14.4564 21.4089H14.4399M14.4399 21.4089H14.4234M14.4399 21.4089H14.4234M14.4234 21.4089H14.4068M14.4234 21.4089H14.4068M14.4068 21.4089H14.3903M14.4068 21.4089H14.3903M14.3903 21.4089H14.3738M14.3903 21.4089H14.3738M14.3738 21.4089H14.3573M14.3738 21.4089H14.3573M14.3573 21.4089H14.3408M14.3573 21.4089H14.3408M14.3408 21.4089H14.3243M14.3408 21.4089H14.3243M14.3243 21.4089H14.3078M14.3243 21.4089H14.3078M14.3078 21.4089H14.2913M14.3078 21.4089H14.2913M14.2913 21.4089H14.2748M14.2913 21.4089H14.2748M14.2748 21.4089H14.2582M14.2748 21.4089H14.2582M14.2582 21.4089H14.2417M14.2582 21.4089H14.2417M14.2417 21.4089H14.2252M14.2417 21.4089H14.2252M14.2252 21.4089H14.2087M14.2252 21.4089H14.2087M14.2087 21.4089H14.1922M14.2087 21.4089H14.1922M14.1922 21.4089H14.1757M14.1922 21.4089H14.1757M14.1757 21.4089H14.1592M14.1757 21.4089H14.1592M14.1592 21.4089H14.1427M14.1592 21.4089H14.1427M14.1427 21.4089H14.1261M14.1427 21.4089H14.1261M14.1261 21.4089H14.1096M14.1261 21.4089H14.1096M14.1096 21.4089H14.0931M14.1096 21.4089H14.0931M14.0931 21.4089H14.0766M14.0931 21.4089H14.0766M14.0766 21.4089H14.0601M14.0766 21.4089H14.0601M14.0601 21.4089H14.0436M14.0601 21.4089H14.0436M14.0436 21.4089H14.0271M14.0436 21.4089H14.0271M14.0271 21.4089H14.0106M14.0271 21.4089H14.0106M14.0106 21.4089H13.9941M14.0106 21.4089H13.9941M13.9941 21.4089H13.9775M13.9941 21.4089H13.9775M13.9775 21.4089H13.961M13.9775 21.4089H13.961M13.961 21.4089H13.9445M13.961 21.4089H13.9445M13.9445 21.4089H13.928M13.9445 21.4089H13.928M13.928 21.4089H13.9115M13.928 21.4089H13.9115M13.9115 21.4089H13.895M13.9115 21.4089H13.895M13.895 21.4089H13.8785M13.895 21.4089H13.8785M13.8785 21.4089H13.862M13.8785 21.4089H13.862M13.862 21.4089H13.8454M13.862 21.4089H13.8454M13.8454 21.4089H13.8289M13.8454 21.4089H13.8289M13.8289 21.4089H13.8124M13.8289 21.4089H13.8124M13.8124 21.4089H13.7959M13.8124 21.4089H13.7959M13.7959 21.4089H13.7794M13.7959 21.4089H13.7794M13.7794 21.4089H13.7629M13.7794 21.4089H13.7629M13.7629 21.4089H13.7464M13.7629 21.4089H13.7464M13.7464 21.4089H13.7299M13.7464 21.4089H13.7299M13.7299 21.4089H13.7134M13.7299 21.4089H13.7134M13.7134 21.4089H13.6968M13.7134 21.4089H13.6968M13.6968 21.4089H13.6803M13.6968 21.4089H13.6803M13.6803 21.4089H13.6638M13.6803 21.4089H13.6638M13.6638 21.4089H13.6473M13.6638 21.4089H13.6473M13.6473 21.4089H13.6308M13.6473 21.4089H13.6308M13.6308 21.4089H13.6143M13.6308 21.4089H13.6143M13.6143 21.4089H13.5978M13.6143 21.4089H13.5978M13.5978 21.4089H13.5813M13.5978 21.4089H13.5813M13.5813 21.4089H13.5647M13.5813 21.4089H13.5647M13.5647 21.4089H13.5482M13.5647 21.4089H13.5482M13.5482 21.4089H13.5317M13.5482 21.4089H13.5317M13.5317 21.4089H13.5152M13.5317 21.4089H13.5152M13.5152 21.4089H13.4987M13.5152 21.4089H13.4987M13.4987 21.4089H13.4822M13.4987 21.4089H13.4822M13.4822 21.4089H13.4657M13.4822 21.4089H13.4657M13.4657 21.4089H13.4492M13.4657 21.4089H13.4492M13.4492 21.4089H13.4326M13.4492 21.4089H13.4326M13.4326 21.4089H13.4161M13.4326 21.4089H13.4161M13.4161 21.4089H13.3996M13.4161 21.4089H13.3996M13.3996 21.4089H13.3831M13.3996 21.4089H13.3831M13.3831 21.4089H13.3666M13.3831 21.4089H13.3666M13.3666 21.4089H13.3501M13.3666 21.4089H13.3501M13.3501 21.4089H13.3336M13.3501 21.4089H13.3336M13.3336 21.4089H13.3171M13.3336 21.4089H13.3171M13.3171 21.4089H13.3006M13.3171 21.4089H13.3006M13.3006 21.4089H13.284M13.3006 21.4089H13.284M13.284 21.4089H13.2675M13.284 21.4089H13.2675M13.2675 21.4089H13.251M13.2675 21.4089H13.251M13.251 21.4089H13.2345M13.251 21.4089H13.2345M13.2345 21.4089H13.218M13.2345 21.4089H13.218M13.218 21.4089H13.2015M13.218 21.4089H13.2015M13.2015 21.4089H13.185M13.2015 21.4089H13.185M13.185 21.4089H13.1685M13.185 21.4089H13.1685M13.1685 21.4089H13.1519M13.1685 21.4089H13.1519M13.1519 21.4089H13.1354M13.1519 21.4089H13.1354M13.1354 21.4089H13.1189M13.1354 21.4089H13.1189M13.1189 21.4089H13.1024M13.1189 21.4089H13.1024M13.1024 21.4089H13.0859M13.1024 21.4089H13.0859M13.0859 21.4089H13.0694M13.0859 21.4089H13.0694M13.0694 21.4089H13.0529M13.0694 21.4089H13.0529M13.0529 21.4089H13.0364M13.0529 21.4089H13.0364M13.0364 21.4089H13.0199M13.0364 21.4089H13.0199M13.0199 21.4089H13.0033M13.0199 21.4089H13.0033M13.0033 21.4089H12.9868M13.0033 21.4089H12.9868M12.9868 21.4089H12.9703M12.9868 21.4089H12.9703M12.9703 21.4089H12.9538M12.9703 21.4089H12.9538M12.9538 21.4089H12.9373M12.9538 21.4089H12.9373M12.9373 21.4089H12.9208M12.9373 21.4089H12.9208M12.9208 21.4089H12.9043M12.9208 21.4089H12.9043M12.9043 21.4089H12.8878M12.9043 21.4089H12.8878M12.8878 21.4089H12.8712M12.8878 21.4089H12.8712M12.8712 21.4089H12.8547M12.8712 21.4089H12.8547M12.8547 21.4089H12.8382M12.8547 21.4089H12.8382M12.8382 21.4089H12.8217M12.8382 21.4089H12.8217M12.8217 21.4089H12.8052M12.8217 21.4089H12.8052M12.8052 21.4089H12.7887M12.8052 21.4089H12.7887M12.7887 21.4089H12.7722M12.7887 21.4089H12.7722M12.7722 21.4089H12.7557M12.7722 21.4089H12.7557M12.7557 21.4089H12.7392M12.7557 21.4089H12.7392M12.7392 21.4089H12.7226M12.7392 21.4089H12.7226M12.7226 21.4089H12.7061M12.7226 21.4089H12.7061M12.7061 21.4089H12.6896M12.7061 21.4089H12.6896M12.6896 21.4089H12.6731M12.6896 21.4089H12.6731M12.6731 21.4089H12.6566M12.6731 21.4089H12.6566M12.6566 21.4089H12.6401M12.6566 21.4089H12.6401M12.6401 21.4089H12.6236M12.6401 21.4089H12.6236M12.6236 21.4089H12.6071M12.6236 21.4089H12.6071M12.6071 21.4089H12.5905M12.6071 21.4089H12.5905M12.5905 21.4089H12.574M12.5905 21.4089H12.574M12.574 21.4089H12.5575M12.574 21.4089H12.5575M12.5575 21.4089H12.541M12.5575 21.4089H12.541M12.541 21.4089H12.5245M12.541 21.4089H12.5245M12.5245 21.4089H12.508M12.5245 21.4089H12.508M12.508 21.4089H12.4915M12.508 21.4089H12.4915M12.4915 21.4089H12.475M12.4915 21.4089H12.475M12.475 21.4089H12.4585M12.475 21.4089H12.4585M12.4585 21.4089H12.4419M12.4585 21.4089H12.4419M12.4419 21.4089H12.4254M12.4419 21.4089H12.4254M12.4254 21.4089H12.4089M12.4254 21.4089H12.4089M12.4089 21.4089H12.3924M12.4089 21.4089H12.3924M12.3924 21.4089H12.3759M12.3924 21.4089H12.3759M12.3759 21.4089H12.3594M12.3759 21.4089H12.3594M12.3594 21.4089H12.3429M12.3594 21.4089H12.3429M12.3429 21.4089H12.3264M12.3429 21.4089H12.3264M12.3264 21.4089H12.3098M12.3264 21.4089H12.3098M12.3098 21.4089H12.2933M12.3098 21.4089H12.2933M12.2933 21.4089H12.2768M12.2933 21.4089H12.2768M12.2768 21.4089H12.2603M12.2768 21.4089H12.2603M12.2603 21.4089H12.2438M12.2603 21.4089H12.2438M12.2438 21.4089H12.2273M12.2438 21.4089H12.2273M12.2273 21.4089H12.2108M12.2273 21.4089H12.2108M12.2108 21.4089H12.1943M12.2108 21.4089H12.1943M12.1943 21.4089H12.1778M12.1943 21.4089H12.1778M12.1778 21.4089H12.1612M12.1778 21.4089H12.1612M12.1612 21.4089H12.1447M12.1612 21.4089H12.1447M12.1447 21.4089H12.1282M12.1447 21.4089H12.1282M12.1282 21.4089H12.1117M12.1282 21.4089H12.1117M12.1117 21.4089H12.0952M12.1117 21.4089H12.0952M12.0952 21.4089H12.0787M12.0952 21.4089H12.0787M12.0787 21.4089H12.0622M12.0787 21.4089H12.0622M12.0622 21.4089H12.0457M12.0622 21.4089H12.0457M12.0457 21.4089H12.0291M12.0457 21.4089H12.0291M12.0291 21.4089H12.0126M12.0291 21.4089H12.0126M12.0126 21.4089H11.9961M12.0126 21.4089H11.9961M11.9961 21.4089H11.9796M11.9961 21.4089H11.9796M11.9796 21.4089H11.9631M11.9796 21.4089H11.9631M11.9631 21.4089H11.9466M11.9631 21.4089H11.9466M11.9466 21.4089H11.9301M11.9466 21.4089H11.9301M11.9301 21.4089H11.9136M11.9301 21.4089H11.9136M11.9136 21.4089H11.897M11.9136 21.4089H11.897M11.897 21.4089H11.8805M11.897 21.4089H11.8805M11.8805 21.4089H11.864M11.8805 21.4089H11.864M11.864 21.4089H11.8475M11.864 21.4089H11.8475M11.8475 21.4089H11.831M11.8475 21.4089H11.831M11.831 21.4089H11.8145M11.831 21.4089H11.8145M11.8145 21.4089H11.798M11.8145 21.4089H11.798M11.798 21.4089H11.7815M11.798 21.4089H11.7815M11.7815 21.4089H11.765M11.7815 21.4089H11.765M11.765 21.4089H11.7484M11.765 21.4089H11.7484M11.7484 21.4089H11.7319M11.7484 21.4089H11.7319M11.7319 21.4089H11.7154M11.7319 21.4089H11.7154M11.7154 21.4089H11.6989M11.7154 21.4089H11.6989M11.6989 21.4089H11.6824M11.6989 21.4089H11.6824M11.6824 21.4089H11.6659M11.6824 21.4089H11.6659M11.6659 21.4089H11.6494M11.6659 21.4089H11.6494M11.6494 21.4089H11.6329M11.6494 21.4089H11.6329M11.6329 21.4089H11.6163M11.6329 21.4089H11.6163M11.6163 21.4089H11.5998M11.6163 21.4089H11.5998M11.5998 21.4089H11.5833M11.5998 21.4089H11.5833M11.5833 21.4089H11.5668M11.5833 21.4089H11.5668M11.5668 21.4089H11.5503M11.5668 21.4089H11.5503M11.5503 21.4089H11.5338M11.5503 21.4089H11.5338M11.5338 21.4089H11.5173M11.5338 21.4089H11.5173M11.5173 21.4089H11.5008M11.5173 21.4089H11.5008M11.5008 21.4089H11.4843M11.5008 21.4089H11.4843M11.4843 21.4089H11.4679M11.4843 21.4089H11.4679M17.7969 15.4963C19.2716 16.9259 20.1275 18.726 20.4514 20.7963L17.7969 15.4963ZM11.4679 21.4089H11.4516M11.4679 21.4089H11.4516M11.4516 21.4089H11.4353M11.4516 21.4089H11.4353M11.4353 21.4089H11.419M11.4353 21.4089H11.419M11.419 21.4089H11.4027M11.419 21.4089H11.4027M11.4027 21.4089H11.3863M11.4027 21.4089H11.3863M11.3863 21.4089H11.37M11.3863 21.4089H11.37M11.37 21.4089H11.3537M11.37 21.4089H11.3537M11.3537 21.4089H11.3374M11.3537 21.4089H11.3374M11.3374 21.4089H11.3211M11.3374 21.4089H11.3211M11.3211 21.4089H11.3048M11.3211 21.4089H11.3048M11.3048 21.4089H11.2884M11.3048 21.4089H11.2884M11.2884 21.4089H11.2721M11.2884 21.4089H11.2721M11.2721 21.4089H11.2558M11.2721 21.4089H11.2558M11.2558 21.4089H11.2395M11.2558 21.4089H11.2395M11.2395 21.4089H11.2232M11.2395 21.4089H11.2232M11.2232 21.4089H11.2069M11.2232 21.4089H11.2069M11.2069 21.4089H11.1905M11.2069 21.4089H11.1905M11.1905 21.4089H11.1742M11.1905 21.4089H11.1742M11.1742 21.4089H11.1579M11.1742 21.4089H11.1579M11.1579 21.4089H11.1416M11.1579 21.4089H11.1416M11.1416 21.4089H11.1253M11.1416 21.4089H11.1253M11.1253 21.4089H11.1089M11.1253 21.4089H11.1089M11.1089 21.4089H11.0926M11.1089 21.4089H11.0926M11.0926 21.4089H11.0763M11.0926 21.4089H11.0763M11.0763 21.4089H11.06M11.0763 21.4089H11.06M11.06 21.4089H11.0437M11.06 21.4089H11.0437M11.0437 21.4089H11.0274M11.0437 21.4089H11.0274M11.0274 21.4089H11.011M11.0274 21.4089H11.011M11.011 21.4089H10.9947M11.011 21.4089H10.9947M10.9947 21.4089H10.9784M10.9947 21.4089H10.9784M10.9784 21.4089H10.9621M10.9784 21.4089H10.9621M10.9621 21.4089H10.9458M10.9621 21.4089H10.9458M10.9458 21.4089H10.9294M10.9458 21.4089H10.9294M10.9294 21.4089H10.9131M10.9294 21.4089H10.9131M10.9131 21.4089H10.8968M10.9131 21.4089H10.8968M10.8968 21.4089H10.8805M10.8968 21.4089H10.8805M10.8805 21.4089H10.8642M10.8805 21.4089H10.8642M10.8642 21.4089H10.8479M10.8642 21.4089H10.8479M10.8479 21.4089H10.8315M10.8479 21.4089H10.8315M10.8315 21.4089H10.8152M10.8315 21.4089H10.8152M10.8152 21.4089H10.7989M10.8152 21.4089H10.7989M10.7989 21.4089H10.7826M10.7989 21.4089H10.7826M10.7826 21.4089H10.7663M10.7826 21.4089H10.7663M10.7663 21.4089H10.7499M10.7663 21.4089H10.7499M10.7499 21.4089H10.7336M10.7499 21.4089H10.7336M10.7336 21.4089H10.7173M10.7336 21.4089H10.7173M10.7173 21.4089H10.701M10.7173 21.4089H10.701M10.701 21.4089H10.6847M10.701 21.4089H10.6847M10.6847 21.4089H10.6684M10.6847 21.4089H10.6684M10.6684 21.4089H10.652M10.6684 21.4089H10.652M10.652 21.4089H10.6357M10.652 21.4089H10.6357M10.6357 21.4089H10.6194M10.6357 21.4089H10.6194M10.6194 21.4089H10.6031M10.6194 21.4089H10.6031M10.6031 21.4089H10.5868M10.6031 21.4089H10.5868M10.5868 21.4089H10.5704M10.5868 21.4089H10.5704M10.5704 21.4089H10.5541M10.5704 21.4089H10.5541M10.5541 21.4089H10.5378M10.5541 21.4089H10.5378M10.5378 21.4089H10.5215M10.5378 21.4089H10.5215M10.5215 21.4089H10.5052M10.5215 21.4089H10.5052M10.5052 21.4089H10.4889M10.5052 21.4089H10.4889M10.4889 21.4089H10.4725M10.4889 21.4089H10.4725M10.4725 21.4089H10.4562M10.4725 21.4089H10.4562M10.4562 21.4089H10.4399M10.4562 21.4089H10.4399M10.4399 21.4089H10.4236M10.4399 21.4089H10.4236M10.4236 21.4089H10.4073M10.4236 21.4089H10.4073M10.4073 21.4089H10.391M10.4073 21.4089H10.391M10.391 21.4089H10.3746M10.391 21.4089H10.3746M10.3746 21.4089H10.3583M10.3746 21.4089H10.3583M10.3583 21.4089H10.342M10.3583 21.4089H10.342M10.342 21.4089H10.3257M10.342 21.4089H10.3257M10.3257 21.4089H10.3094M10.3257 21.4089H10.3094M10.3094 21.4089H10.293M10.3094 21.4089H10.293M10.293 21.4089H10.2767M10.293 21.4089H10.2767M10.2767 21.4089H10.2604M10.2767 21.4089H10.2604M10.2604 21.4089H10.2441M10.2604 21.4089H10.2441M10.2441 21.4089H10.2278M10.2441 21.4089H10.2278M10.2278 21.4089H10.2115M10.2278 21.4089H10.2115M10.2115 21.4089H10.1951M10.2115 21.4089H10.1951M10.1951 21.4089H10.1788M10.1951 21.4089H10.1788M10.1788 21.4089H10.1625M10.1788 21.4089H10.1625M10.1625 21.4089H10.1462M10.1625 21.4089H10.1462M10.1462 21.4089H10.1299M10.1462 21.4089H10.1299M10.1299 21.4089H10.1135M10.1299 21.4089H10.1135M10.1135 21.4089H10.0972M10.1135 21.4089H10.0972M10.0972 21.4089H10.0809M10.0972 21.4089H10.0809M10.0809 21.4089H10.0646M10.0809 21.4089H10.0646M10.0646 21.4089H10.0483M10.0646 21.4089H10.0483M10.0483 21.4089H10.032M10.0483 21.4089H10.032M10.032 21.4089H10.0156M10.032 21.4089H10.0156M10.0156 21.4089H9.99932M10.0156 21.4089H9.99932M9.99932 21.4089H9.983M9.99932 21.4089H9.983M9.983 21.4089H9.96669M9.983 21.4089H9.96669M9.96669 21.4089H9.95037M9.96669 21.4089H9.95037M9.95037 21.4089H9.93405M9.95037 21.4089H9.93405M9.93405 21.4089H9.91773M9.93405 21.4089H9.91773M9.91773 21.4089H9.90141M9.91773 21.4089H9.90141M9.90141 21.4089H9.8851M9.90141 21.4089H9.8851M9.8851 21.4089H9.86878M9.8851 21.4089H9.86878M9.86878 21.4089H9.85246M9.86878 21.4089H9.85246M9.85246 21.4089H9.83614M9.85246 21.4089H9.83614M9.83614 21.4089H9.81983M9.83614 21.4089H9.81983M9.81983 21.4089H9.80351M9.81983 21.4089H9.80351M9.80351 21.4089H9.78719M9.80351 21.4089H9.78719M9.78719 21.4089H9.77087M9.78719 21.4089H9.77087M9.77087 21.4089H9.75455M9.77087 21.4089H9.75455M9.75455 21.4089H9.73824M9.75455 21.4089H9.73824M9.73824 21.4089H9.72192M9.73824 21.4089H9.72192M9.72192 21.4089H9.7056M9.72192 21.4089H9.7056M9.7056 21.4089H9.68928M9.7056 21.4089H9.68928M9.68928 21.4089H9.67296M9.68928 21.4089H9.67296M9.67296 21.4089H9.65665M9.67296 21.4089H9.65665M9.65665 21.4089H9.64033M9.65665 21.4089H9.64033M9.64033 21.4089H9.62401M9.64033 21.4089H9.62401M9.62401 21.4089H9.60769M9.62401 21.4089H9.60769M9.60769 21.4089H9.59137M9.60769 21.4089H9.59137M9.59137 21.4089H9.57506M9.59137 21.4089H9.57506M9.57506 21.4089H9.55874M9.57506 21.4089H9.55874M9.55874 21.4089H9.54242M9.55874 21.4089H9.54242M9.54242 21.4089H9.5261M9.54242 21.4089H9.5261M9.5261 21.4089H9.50978M9.5261 21.4089H9.50978M9.50978 21.4089H9.49347M9.50978 21.4089H9.49347M9.49347 21.4089H9.47715M9.49347 21.4089H9.47715M9.47715 21.4089H9.46083M9.47715 21.4089H9.46083M9.46083 21.4089H9.44451M9.46083 21.4089H9.44451M9.44451 21.4089H9.42819M9.44451 21.4089H9.42819M9.42819 21.4089H9.41188M9.42819 21.4089H9.41188M9.41188 21.4089H9.39556M9.41188 21.4089H9.39556M9.39556 21.4089H9.37924M9.39556 21.4089H9.37924M9.37924 21.4089H9.36292M9.37924 21.4089H9.36292M9.36292 21.4089H9.3466M9.36292 21.4089H9.3466M9.3466 21.4089H9.33029M9.3466 21.4089H9.33029M9.33029 21.4089H9.31397M9.33029 21.4089H9.31397M9.31397 21.4089H9.29765M9.31397 21.4089H9.29765M9.29765 21.4089H9.28133M9.29765 21.4089H9.28133M9.28133 21.4089H9.26501M9.28133 21.4089H9.26501M9.26501 21.4089H9.2487M9.26501 21.4089H9.2487M9.2487 21.4089H9.23238M9.2487 21.4089H9.23238M9.23238 21.4089H9.21606M9.23238 21.4089H9.21606M9.21606 21.4089H9.19974M9.21606 21.4089H9.19974M9.19974 21.4089H9.18342M9.19974 21.4089H9.18342M9.18342 21.4089H9.16711M9.18342 21.4089H9.16711M9.16711 21.4089H9.15079M9.16711 21.4089H9.15079M9.15079 21.4089H9.13447M9.15079 21.4089H9.13447M9.13447 21.4089H9.11815M9.13447 21.4089H9.11815M9.11815 21.4089H9.10184M9.11815 21.4089H9.10184M9.10184 21.4089H9.08552M9.10184 21.4089H9.08552M9.08552 21.4089H9.0692M9.08552 21.4089H9.0692M9.0692 21.4089H9.05288M9.0692 21.4089H9.05288M9.05288 21.4089H9.03656M9.05288 21.4089H9.03656M9.03656 21.4089H9.02025M9.03656 21.4089H9.02025M9.02025 21.4089H9.00393M9.02025 21.4089H9.00393M9.00393 21.4089H8.98761M9.00393 21.4089H8.98761M8.98761 21.4089H8.97129M8.98761 21.4089H8.97129M8.97129 21.4089H8.95497M8.97129 21.4089H8.95497M8.95497 21.4089H8.93866M8.95497 21.4089H8.93866M8.93866 21.4089H8.92234M8.93866 21.4089H8.92234M8.92234 21.4089H8.90602M8.92234 21.4089H8.90602M8.90602 21.4089H8.8897M8.90602 21.4089H8.8897M8.8897 21.4089H8.87338M8.8897 21.4089H8.87338M8.87338 21.4089H8.85707M8.87338 21.4089H8.85707M8.85707 21.4089H8.84075M8.85707 21.4089H8.84075M8.84075 21.4089H8.82443M8.84075 21.4089H8.82443M8.82443 21.4089H8.80811M8.82443 21.4089H8.80811M8.80811 21.4089H8.79179M8.80811 21.4089H8.79179M8.79179 21.4089H8.77548M8.79179 21.4089H8.77548M8.77548 21.4089H8.75916M8.77548 21.4089H8.75916M8.75916 21.4089H8.74284M8.75916 21.4089H8.74284M8.74284 21.4089H8.72652M8.74284 21.4089H8.72652M8.72652 21.4089H8.71021M8.72652 21.4089H8.71021M8.71021 21.4089H8.69389M8.71021 21.4089H8.69389M8.69389 21.4089H8.67757M8.69389 21.4089H8.67757M8.67757 21.4089H8.66125M8.67757 21.4089H8.66125M8.66125 21.4089H8.64493M8.66125 21.4089H8.64493M8.64493 21.4089H8.62862M8.64493 21.4089H8.62862M8.62862 21.4089H8.6123M8.62862 21.4089H8.6123M8.6123 21.4089H8.59598M8.6123 21.4089H8.59598M8.59598 21.4089H8.57966M8.59598 21.4089H8.57966M8.57966 21.4089H8.56334M8.57966 21.4089H8.56334M8.56334 21.4089H8.54703M8.56334 21.4089H8.54703M8.54703 21.4089H8.53071M8.54703 21.4089H8.53071M8.53071 21.4089H8.51439M8.53071 21.4089H8.51439M8.51439 21.4089H8.49807M8.51439 21.4089H8.49807M8.49807 21.4089H8.48175M8.49807 21.4089H8.48175M8.48175 21.4089H8.46544M8.48175 21.4089H8.46544M8.46544 21.4089H8.44912M8.46544 21.4089H8.44912M8.44912 21.4089H8.4328M8.44912 21.4089H8.4328M8.4328 21.4089H8.41648M8.4328 21.4089H8.41648M8.41648 21.4089H8.40016M8.41648 21.4089H8.40016M8.40016 21.4089H8.38385M8.40016 21.4089H8.38385M8.38385 21.4089H8.36753M8.38385 21.4089H8.36753M8.36753 21.4089H8.35121M8.36753 21.4089H8.35121M8.35121 21.4089H8.33489M8.35121 21.4089H8.33489M8.33489 21.4089H8.31857M8.33489 21.4089H8.31857M8.31857 21.4089H8.30226M8.31857 21.4089H8.30226M8.30226 21.4089H8.28594M8.30226 21.4089H8.28594M8.28594 21.4089H8.26962M8.28594 21.4089H8.26962M8.26962 21.4089H8.2533M8.26962 21.4089H8.2533M8.2533 21.4089H8.23698M8.2533 21.4089H8.23698M8.23698 21.4089H8.22067M8.23698 21.4089H8.22067M8.22067 21.4089H8.20435M8.22067 21.4089H8.20435M8.20435 21.4089H8.18803M8.20435 21.4089H8.18803M8.18803 21.4089H8.17171M8.18803 21.4089H8.17171M8.17171 21.4089H8.1554M8.17171 21.4089H8.1554M8.1554 21.4089H8.13908M8.1554 21.4089H8.13908M8.13908 21.4089H8.12276M8.13908 21.4089H8.12276M8.12276 21.4089H8.10644M8.12276 21.4089H8.10644M8.10644 21.4089H8.09012M8.10644 21.4089H8.09012M8.09012 21.4089H8.07381M8.09012 21.4089H8.07381M8.07381 21.4089H8.05749M8.07381 21.4089H8.05749M8.05749 21.4089H8.04117M8.05749 21.4089H8.04117M8.04117 21.4089H8.02485M8.04117 21.4089H8.02485M8.02485 21.4089H8.00853M8.02485 21.4089H8.00853M8.00853 21.4089H7.99222M8.00853 21.4089H7.99222M7.99222 21.4089H7.9759M7.99222 21.4089H7.9759M7.9759 21.4089H7.95958M7.9759 21.4089H7.95958M7.95958 21.4089H7.94326M7.95958 21.4089H7.94326M7.94326 21.4089H7.92694M7.94326 21.4089H7.92694M7.92694 21.4089H7.91063M7.92694 21.4089H7.91063M7.91063 21.4089H7.89431M7.91063 21.4089H7.89431M7.89431 21.4089H7.87799M7.89431 21.4089H7.87799M7.87799 21.4089H7.86167M7.87799 21.4089H7.86167M7.86167 21.4089H7.84535M7.86167 21.4089H7.84535M7.84535 21.4089H7.82904M7.84535 21.4089H7.82904M7.82904 21.4089H7.81272M7.82904 21.4089H7.81272M7.81272 21.4089H7.7964M7.81272 21.4089H7.7964M7.7964 21.4089H7.78008M7.7964 21.4089H7.78008M7.78008 21.4089H7.76376M7.78008 21.4089H7.76376M7.76376 21.4089H7.74745M7.76376 21.4089H7.74745M7.74745 21.4089H7.73113M7.74745 21.4089H7.73113M7.73113 21.4089H7.71481M7.73113 21.4089H7.71481M7.71481 21.4089H7.69849M7.71481 21.4089H7.69849M7.69849 21.4089H7.68217M7.69849 21.4089H7.68217M7.68217 21.4089H7.66586M7.68217 21.4089H7.66586M7.66586 21.4089H7.64954M7.66586 21.4089H7.64954M7.64954 21.4089H7.63322M7.64954 21.4089H7.63322M7.63322 21.4089H7.6169M7.63322 21.4089H7.6169M7.6169 21.4089H7.60058M7.6169 21.4089H7.60058M7.60058 21.4089H7.58427M7.60058 21.4089H7.58427M7.58427 21.4089H7.56795M7.58427 21.4089H7.56795M7.56795 21.4089H7.55163M7.56795 21.4089H7.55163M7.55163 21.4089H7.53531M7.55163 21.4089H7.53531M7.53531 21.4089H7.519M7.53531 21.4089H7.519M7.519 21.4089H7.50268M7.519 21.4089H7.50268M7.50268 21.4089H7.48636M7.50268 21.4089H7.48636M7.48636 21.4089H7.47004M7.48636 21.4089H7.47004M7.47004 21.4089H7.45372M7.47004 21.4089H7.45372M7.45372 21.4089H7.43741M7.45372 21.4089H7.43741M7.43741 21.4089H7.42109M7.43741 21.4089H7.42109M7.42109 21.4089H7.40477M7.42109 21.4089H7.40477M7.40477 21.4089H7.38845M7.40477 21.4089H7.38845M7.38845 21.4089H7.37213M7.38845 21.4089H7.37213M7.37213 21.4089H7.35582M7.37213 21.4089H7.35582M7.35582 21.4089H7.3395M7.35582 21.4089H7.3395M7.3395 21.4089H7.32318M7.3395 21.4089H7.32318M7.32318 21.4089H7.30686M7.32318 21.4089H7.30686M7.30686 21.4089H7.29054M7.30686 21.4089H7.29054M7.29054 21.4089H7.27423M7.29054 21.4089H7.27423M7.27423 21.4089H7.25791M7.27423 21.4089H7.25791M7.25791 21.4089H7.24159M7.25791 21.4089H7.24159M7.24159 21.4089H7.22527M7.24159 21.4089H7.22527M7.22527 21.4089H7.20895M7.22527 21.4089H7.20895M7.20895 21.4089H7.19264M7.20895 21.4089H7.19264M7.19264 21.4089H7.17632M7.19264 21.4089H7.17632M7.17632 21.4089H7.16M7.17632 21.4089H7.16M7.16 21.4089H7.14368M7.16 21.4089H7.14368M7.14368 21.4089H7.12737M7.14368 21.4089H7.12737M7.12737 21.4089H7.11105M7.12737 21.4089H7.11105M7.11105 21.4089H7.09473M7.11105 21.4089H7.09473M7.09473 21.4089H7.07841M7.09473 21.4089H7.07841M7.07841 21.4089H7.06209M7.07841 21.4089H7.06209M7.06209 21.4089H7.04578M7.06209 21.4089H7.04578M7.04578 21.4089H7.02946M7.04578 21.4089H7.02946M7.02946 21.4089H7.01314M7.02946 21.4089H7.01314M7.01314 21.4089H6.99682M7.01314 21.4089H6.99682M6.99682 21.4089H6.9805M6.99682 21.4089H6.9805M6.9805 21.4089H6.96419M6.9805 21.4089H6.96419M6.96419 21.4089H6.94787M6.96419 21.4089H6.94787M6.94787 21.4089H6.93155M6.94787 21.4089H6.93155M6.93155 21.4089H6.91523M6.93155 21.4089H6.91523M6.91523 21.4089H6.89891M6.91523 21.4089H6.89891M6.89891 21.4089H6.8826M6.89891 21.4089H6.8826M6.8826 21.4089H6.86628M6.8826 21.4089H6.86628M6.86628 21.4089H6.84996M6.86628 21.4089H6.84996M6.84996 21.4089H6.83364M6.84996 21.4089H6.83364M6.83364 21.4089H6.81732M6.83364 21.4089H6.81732M6.81732 21.4089H6.80101M6.81732 21.4089H6.80101M6.80101 21.4089H6.78469M6.80101 21.4089H6.78469M6.78469 21.4089H6.76837M6.78469 21.4089H6.76837M6.76837 21.4089H6.75205M6.76837 21.4089H6.75205M6.75205 21.4089H6.73573M6.75205 21.4089H6.73573M6.73573 21.4089H6.71942H6.73573ZM11.4844 11.1823H11.4843V11.2323L11.4844 11.1823Z" fill="#7677F4" stroke="#898989" stroke-width="0.1"/>
</svg>
