<svg width="26" height="26" viewBox="0 0 26 26" fill="none" xmlns="http://www.w3.org/2000/svg">
<path d="M26 14.3214V14.9849C25.9865 15.0323 25.9594 15.0729 25.9526 15.1203C25.6818 16.7927 24.3818 18.0792 22.7026 18.2823C22.0255 18.3635 21.3349 18.3365 20.651 18.3297C18.8229 18.3229 17.2724 17.0229 16.9271 15.2286C16.8391 14.7682 16.8661 14.3281 17.0557 13.8745C18.112 11.3964 19.1344 8.90469 20.1703 6.41302C20.2042 6.33177 20.238 6.25052 20.2786 6.14219C18.5927 6.14219 16.9406 6.14219 15.2885 6.14896C15.2208 6.14896 15.1193 6.23698 15.0854 6.31146C14.8417 6.81927 14.476 7.21198 13.9682 7.44219C13.799 7.51667 13.7583 7.61146 13.7583 7.78073C13.7651 11.2474 13.7583 14.7208 13.7583 18.1875C13.7583 18.2755 13.7583 18.3703 13.7583 18.438C15.3156 18.8646 16.3109 19.8057 16.7172 21.3495C16.7375 21.424 16.8594 21.5052 16.9474 21.5323C18.1797 21.8708 19.0464 22.6156 19.5609 23.7802C19.8724 24.4911 19.8656 25.2427 19.8521 26.001H6.14792C6.14792 25.7099 6.14792 25.4187 6.14792 25.1276C6.16146 23.401 7.38698 21.9589 9.05938 21.5458C9.21511 21.5052 9.26927 21.4375 9.3099 21.2818C9.48594 20.5776 9.83125 19.9682 10.3594 19.4604C10.8875 18.9458 11.5172 18.6276 12.2281 18.4583C12.2349 18.4109 12.2417 18.3771 12.2417 18.3432C12.2417 14.7953 12.2417 11.2542 12.2349 7.70625C12.2349 7.625 12.1536 7.50989 12.0792 7.47604C11.5646 7.23229 11.1786 6.86667 10.9417 6.35208C10.8807 6.22344 10.7521 6.14219 10.6099 6.14896C9.05937 6.15573 7.51562 6.15573 5.9651 6.15573C5.8974 6.15573 5.82292 6.1625 5.72813 6.16927C5.76875 6.27083 5.79583 6.35208 5.82969 6.42656C6.90625 9.01302 7.98281 11.6062 9.05938 14.1927C9.1 14.2943 9.13385 14.4026 9.13385 14.5042C9.17448 16.3661 7.73229 18.0656 5.87708 18.2823C5.18646 18.3635 4.47552 18.3365 3.77135 18.3365C2.05156 18.3229 0.541667 17.1312 0.115104 15.4656C0.0744792 15.3031 0.0338542 15.1406 0 14.9781C0 14.7615 0 14.538 0 14.3146C0.0338542 14.2469 0.0744792 14.1859 0.101562 14.1182C1.08333 11.7552 2.07187 9.39896 3.05365 7.03594C3.17552 6.75156 3.29063 6.46719 3.42604 6.13542H1.53698V4.62552C1.65208 4.62552 1.74688 4.62552 1.84844 4.62552C4.76667 4.62552 7.6849 4.62552 10.6031 4.62552C10.7859 4.62552 10.8807 4.57812 10.962 4.36823C11.138 3.90104 11.4901 3.52187 11.9573 3.35937C12.2078 3.27135 12.2484 3.16979 12.2484 2.97344C12.2417 1.9849 12.2417 0.996354 12.2417 0.0078125H13.7651C13.7651 1.00312 13.7651 2.00521 13.7651 3.00052C13.7651 3.15625 13.7922 3.25104 13.9615 3.32552C14.4693 3.54219 14.8417 3.92135 15.0719 4.4224C15.1464 4.59167 15.2411 4.63229 15.4104 4.63229C18.3354 4.62552 21.2604 4.63229 24.1854 4.63229C24.2802 4.63229 24.3818 4.63229 24.4698 4.63229V6.15573H22.5943C22.6349 6.26406 22.662 6.33854 22.6958 6.41302C23.488 8.31562 24.2802 10.2182 25.0724 12.1141C25.3703 12.8521 25.6885 13.5833 26 14.3214ZM7.23125 13.7526C6.34427 11.6266 5.47083 9.5276 4.57031 7.36771C3.66302 9.54114 2.78958 11.6401 1.90938 13.7526H7.23125ZM21.4297 7.36094C20.5224 9.53437 19.649 11.6333 18.7688 13.7526H24.0906C23.2104 11.6333 22.337 9.53437 21.4297 7.36094ZM7.83385 24.4641H18.1729C17.9495 23.6516 17.0693 22.9677 16.162 22.9609C14.0563 22.9474 11.9505 22.9474 9.83802 22.9609C8.9375 22.9677 8.05052 23.6516 7.83385 24.4641ZM7.48177 15.3031H1.68594C1.86875 15.9937 2.57292 16.6708 3.34479 16.7453C4.15729 16.8198 4.9901 16.8333 5.79583 16.7385C6.6151 16.6437 7.15677 16.0885 7.48177 15.3031ZM24.3411 15.3031H18.5182C18.85 16.0885 19.3849 16.6437 20.2042 16.7385C21.0099 16.8333 21.8427 16.8333 22.6552 16.7385C23.4745 16.6437 24.0161 16.0885 24.3411 15.3031ZM10.8807 21.4172H15.126C14.8891 20.5573 13.9615 19.9073 12.9932 19.9073C12.0318 19.9141 11.1042 20.5708 10.8807 21.4172ZM13.2099 4.6526C12.6547 4.49687 12.1266 4.99792 12.262 5.5599C12.3229 5.82396 12.5328 6.04062 12.7969 6.1151C13.3453 6.27083 13.8734 5.76302 13.7448 5.20781C13.6771 4.94375 13.4672 4.72708 13.2099 4.6526Z" fill="#898989"/>
</svg>
