<svg width="23" height="29" viewBox="0 0 23 29" fill="none" xmlns="http://www.w3.org/2000/svg">
<path d="M22.7348 26.4348C21.2676 24.0106 19.8004 21.5352 18.3728 19.1367L17.6854 17.9951L17.3946 17.4949C17.2228 17.1999 16.9584 16.7638 16.6544 16.2508C15.663 14.5834 14.1825 12.0566 13.5613 11.0946C13.2044 10.5431 13.0854 10.0942 13.1383 9.58116C13.1647 9.31181 13.1647 8.79876 13.1647 8.1831H14.1693C15.663 8.1831 17.1567 8.1831 18.6504 8.1831C19.6814 8.1831 20.1044 7.58027 20.263 7.20832C20.5538 6.57983 20.3952 5.90004 19.84 5.34852C19.5228 5.04069 19.2055 4.73286 18.8883 4.42503C18.7693 4.3096 18.6504 4.19416 18.5314 4.07873C18.9808 3.64264 19.4435 3.20655 19.8929 2.75763C20.5274 2.12915 20.5935 1.21849 20.0383 0.590004C19.8665 0.397612 19.6814 0.282176 19.536 0.205219C19.4963 0.179567 19.4699 0.16674 19.4302 0.141088L19.2187 0H11.1027L10.9308 0.0769571C10.2038 0.397612 9.83369 1.01327 9.83369 1.88545C9.84691 3.88633 9.84691 6.72092 9.83369 10.3379C9.83369 10.3507 9.82047 10.3892 9.82047 10.4149C9.18599 11.4923 8.52507 12.5953 7.89059 13.6599L7.25611 14.7245C7.22967 14.7629 6.75381 15.571 6.30438 16.3406L6.26473 16.4047C6.22507 16.456 6.19863 16.5201 6.15898 16.5714C5.64346 17.4308 5.12794 18.303 4.61243 19.1623C3.18484 21.5608 1.7176 24.0363 0.250359 26.4604C-0.0801006 27.0119 -0.0933189 27.6533 0.210704 28.1791C0.514727 28.705 1.10955 29.0128 1.77047 29.0128C1.77047 29.0128 1.77047 29.0128 1.78369 29.0128C8.10208 28.9872 14.632 28.9872 21.2147 29.0128C21.8756 29.0128 22.4573 28.705 22.7613 28.1791C23.0917 27.6404 23.0653 26.9991 22.7348 26.4348ZM11.5653 1.6674H18.6107C18.0687 2.2061 17.5004 2.7448 16.9584 3.27068L16.9452 3.2835C16.9187 3.29633 16.9055 3.32198 16.8791 3.33481C16.8394 3.36046 16.813 3.38611 16.7733 3.41176L16.0596 3.96329L16.7469 4.70721C16.7998 4.77134 16.8527 4.82265 16.9055 4.87395C17.1699 5.13047 17.421 5.37417 17.6854 5.63069C17.9894 5.9257 18.3067 6.23353 18.6107 6.52853C17.6722 6.52853 16.7337 6.52853 15.7952 6.52853C15.2532 6.52853 14.7113 6.52853 14.1693 6.52853H11.5653C11.5653 4.66873 11.5653 3.11676 11.5521 1.87262C11.5521 1.77001 11.5653 1.70588 11.5653 1.6674ZM9.38427 14.4808C10.0187 13.4162 10.6797 12.3131 11.3142 11.2229C11.4199 11.0562 11.486 10.8638 11.5256 10.6586C11.6314 11.0946 11.8297 11.5307 12.1205 11.9668C12.7153 12.9031 14.1958 15.4042 15.1739 17.0717C15.3325 17.3538 15.4912 17.6103 15.6233 17.8284L16.7469 19.7267L16.0728 20.3808L11.7636 16.2123L9.7676 18.149L8.1153 16.6227C8.45898 16.0456 8.73657 15.571 8.763 15.5325L9.38427 14.4808ZM21.2279 27.3326C14.6452 27.3069 8.10208 27.3069 1.79691 27.3326C1.77047 27.3326 1.75726 27.3326 1.73082 27.3326C1.73082 27.3198 1.74404 27.3069 1.74404 27.2941C3.21128 24.8571 4.69174 22.3817 6.10611 19.9832C6.47622 19.3547 6.84633 18.7391 7.21645 18.1106L9.79404 20.4834L11.7636 18.5723L16.0596 22.7408L17.6325 21.2145C18.8222 23.2154 20.0383 25.2548 21.2544 27.2685C21.2676 27.2941 21.2808 27.3069 21.2808 27.3198C21.2544 27.3326 21.2412 27.3326 21.2279 27.3326Z" fill="#898989"/>
</svg>
