<svg width="18" height="19" viewBox="0 0 18 19" fill="none" xmlns="http://www.w3.org/2000/svg">
<path d="M16.4738 18.2984C16.2738 18.2984 15.9738 18.1984 15.6738 17.9984C14.7738 17.0984 13.8738 16.1984 12.9738 15.2984C12.5738 14.8984 12.0738 14.3984 11.6738 13.9984C11.6738 13.9984 11.6738 13.9984 11.5738 13.8984C11.5738 13.8984 11.5738 13.8984 11.5738 13.7984L11.2738 13.4984L10.8738 13.6984C10.6738 13.7984 10.5738 13.8984 10.4738 13.8984C10.1738 14.0984 9.97383 14.1984 9.67383 14.2984C8.87383 14.7984 7.87384 14.9984 6.97384 14.9984C5.97384 14.9984 4.97384 14.7984 4.07384 14.2984C1.97384 13.2984 0.673835 11.6984 0.173835 9.39844C-0.226165 7.59844 0.0738354 5.99844 0.973835 4.39844C2.07384 2.59844 3.57384 1.49844 5.57384 1.09844C6.07384 0.998438 6.57384 0.898438 7.07384 0.898438C8.27384 0.898438 9.47383 1.19844 10.5738 1.89844C12.3738 2.99844 13.4738 4.49844 13.8738 6.49844C14.2738 8.19844 13.9738 9.89844 13.0738 11.3984C12.8738 11.7984 12.8738 12.0984 13.1738 12.3984C14.0738 13.2984 14.8738 14.0984 15.7738 14.9984C16.2738 15.4984 16.6738 15.8984 17.1738 16.3984C17.4738 16.6984 17.5738 17.0984 17.4738 17.3984C17.3738 18.0984 16.8738 18.2984 16.4738 18.2984ZM6.97384 2.49844C5.47384 2.49844 4.07384 3.09844 3.07384 4.09844C2.07384 5.09844 1.47384 6.49844 1.47384 7.99844C1.47384 10.9984 3.97384 13.4984 6.97384 13.4984C8.47383 13.4984 9.87383 12.8984 10.8738 11.8984C11.8738 10.8984 12.4738 9.49844 12.4738 7.99844C12.4738 4.99844 9.97383 2.49844 6.97384 2.49844Z" fill="#888888"/>
</svg>
