<svg width="27" height="25" viewBox="0 0 27 25" fill="none" xmlns="http://www.w3.org/2000/svg">
<path d="M27.0005 10.2479C26.948 10.4114 26.9087 10.5749 26.8563 10.7258C26.7121 11.1408 26.4893 11.5055 26.1485 11.8073C24.6806 13.1529 23.2257 14.511 21.7577 15.8566C21.6398 15.9698 21.6005 16.0704 21.6267 16.2339C21.9937 18.1705 22.3475 20.1197 22.7014 22.0563C22.9373 23.3138 22.1247 24.5337 20.8796 24.7474C20.316 24.8481 19.8048 24.7097 19.3068 24.4708C17.498 23.6031 15.6893 22.7479 13.8937 21.8677C13.6708 21.7545 13.5136 21.7671 13.2907 21.8802C11.5344 22.8108 9.77813 23.7288 8.02181 24.6343C7.47133 24.9235 6.86842 25.0493 6.23929 24.9612C5.02036 24.7852 4.1291 23.5905 4.3388 22.4336C4.7058 20.4215 5.07279 18.422 5.45288 16.4099C5.4922 16.2087 5.45288 16.083 5.30871 15.9446C3.81453 14.5865 2.33347 13.2158 0.865504 11.845C0.249485 11.2666 -0.104399 10.5875 0.0528827 9.73235C0.210164 8.78919 1.03589 8.05982 2.03201 7.92149C4.1291 7.61968 6.23929 7.31787 8.33638 7.00348C8.44123 6.9909 8.55919 6.87773 8.59851 6.77712C9.5422 4.96626 10.4728 3.15539 11.4034 1.34452C11.7573 0.652874 12.3208 0.187582 13.1204 0.0492521C14.2082 -0.151955 15.165 0.325912 15.6893 1.29422C16.6068 2.99191 17.5242 4.6896 18.4024 6.39986C18.599 6.7897 18.848 6.92803 19.2806 6.97833C21.1679 7.20469 23.0553 7.44362 24.9427 7.70771C26.0043 7.85861 26.581 8.52511 26.9218 9.44312C26.948 9.50599 26.9611 9.56887 26.9873 9.63175C26.9873 9.84553 26.9873 10.0467 27.0005 10.2479ZM20.0145 23.0875C20.5388 23.3516 21.1417 22.924 21.05 22.3707C20.7747 20.6982 20.5126 19.0633 20.1849 17.4411C19.9228 16.1458 20.198 15.1272 21.1941 14.2092C22.2165 13.2661 23.9466 11.5558 24.9951 10.4995C25.3621 10.1348 25.1393 9.50599 24.615 9.44312C23.0684 9.25449 20.4864 8.92752 18.9791 8.73889C17.9699 8.61314 17.1573 8.24845 16.764 7.29272C16.7378 7.21726 16.6854 7.11666 16.6592 7.04121C15.9776 5.72078 14.7718 3.41947 14.064 2.06133C13.8281 1.60861 13.1728 1.62118 12.95 2.0739C12.2815 3.44463 11.1412 5.74593 10.4859 7.06636C10.0534 7.93406 9.39803 8.62571 8.36259 8.80177C6.86842 9.05328 5.37424 9.27964 3.88007 9.51857C3.48686 9.58145 3.08055 9.64432 2.68735 9.7072C2.09754 9.80781 1.86162 10.512 2.29414 10.9144C3.43444 12.0085 5.2956 13.7691 6.34414 14.7751C6.99949 15.4039 7.35337 16.1584 7.19609 17.0638C6.89463 18.9124 6.55385 20.7485 6.22618 22.5845V22.597C6.12133 23.1629 6.75046 23.5905 7.27473 23.3138L7.28783 23.3013C8.97861 22.4084 10.6694 21.5156 12.3471 20.5975C12.7665 20.3712 13.1859 20.17 13.6577 20.2454C14.1296 20.3209 14.6276 20.4089 15.0471 20.6101C16.0563 21.0628 17.0393 21.591 18.0354 22.0815C18.6907 22.421 19.3461 22.748 20.0145 23.0875Z" fill="#898989"/>
</svg>
