<svg width="35" height="35" viewBox="0 0 35 35" fill="none" xmlns="http://www.w3.org/2000/svg">
<path d="M16.8897 0C17.2975 0 17.7052 0 18.113 0C18.164 0.0169903 18.215 0.0509709 18.2659 0.0509709C22.4116 0.696602 24.3485 5.36893 21.8679 8.73301C21.8169 8.80097 21.7829 8.88592 21.7319 8.97087C23.9237 9.37864 25.5038 10.568 26.7271 12.3519C27.6106 13.6432 28.562 14.8835 29.4625 16.1408C29.5815 16.3107 29.7174 16.3956 29.9383 16.3786C30.6349 16.3617 31.3315 16.3617 32.0281 16.3786C33.5912 16.4126 34.8994 17.6699 35.0014 19.233C35.1033 20.8131 34.0329 22.3083 32.4698 22.4442C30.8557 22.5801 29.2247 22.4951 27.5936 22.4951C27.4747 22.4951 27.3387 22.4612 27.2198 22.4272C26.0985 22.1723 25.198 21.5777 24.5184 20.6432C24.3654 20.4393 24.2125 20.2184 24.0086 19.9636C24.0086 21.7985 24.0086 23.5485 24.0086 25.3155C24.1446 25.2816 24.2465 25.2646 24.3654 25.2306C25.5378 24.8908 26.7101 24.6869 27.9334 24.7209C30.5669 24.7718 32.7926 26.9976 32.8776 29.6141C32.9795 32.5874 30.6858 34.966 27.7125 34.966C20.9164 34.966 14.1033 34.966 7.30719 34.966C7.05234 34.966 6.78049 34.949 6.52564 34.915C4.35088 34.6262 2.53292 32.8592 2.19311 30.7184C1.83632 28.3908 3.00865 26.165 5.08146 25.1966C6.4237 24.568 7.79991 24.6529 9.19311 24.9078C9.78777 25.0097 10.3824 25.1796 10.9771 25.3155C10.9771 23.5485 10.9771 21.7985 10.9771 20.0485C10.9431 20.0485 10.9261 20.0316 10.9261 20.0485C10.7562 20.2694 10.5863 20.5073 10.4164 20.7282C9.54991 21.8665 8.39457 22.4951 6.96738 22.5291C5.64214 22.5631 4.3169 22.5461 3.00865 22.5291C1.70039 22.5121 0.545055 21.6456 0.137288 20.4223C0.0693265 20.2354 0.0353459 20.0485 -0.015625 19.8617C-0.015625 19.5898 -0.015625 19.318 -0.015625 19.0461C0.00136529 18.9951 0.0353459 18.9442 0.0353459 18.8932C0.409132 17.2961 1.56447 16.3956 3.19554 16.3786C3.80719 16.3786 4.40185 16.3617 5.0135 16.3786C5.26836 16.3786 5.40428 16.2937 5.5402 16.1068C6.5936 14.6966 7.647 13.2524 8.70039 11.8252C9.66884 10.5 10.9601 9.6335 12.5232 9.15777C12.7611 9.08981 13.0159 9.03883 13.2878 8.95388C13.2198 8.85194 13.1688 8.76699 13.1179 8.69903C10.8072 5.58981 12.3873 1.13835 16.1591 0.169903C16.397 0.101942 16.6519 0.0509709 16.8897 0ZM13.0499 21.2209C13.0499 22.682 13.0499 24.1432 13.0499 25.5874C13.0499 25.8422 13.1179 25.9272 13.3727 25.9951C14.664 26.3349 15.9383 26.6917 17.2295 27.0316C17.4164 27.0825 17.6373 27.0655 17.8242 27.0146C19.0815 26.6917 20.3218 26.335 21.579 26.0121C21.8679 25.9272 21.9528 25.8083 21.9528 25.5024C21.9358 22.6141 21.9528 19.7427 21.9358 16.8544C21.9358 16.4636 22.0378 16.1408 22.3606 15.9029C22.8533 15.5461 23.448 15.665 23.8387 16.2087C24.6203 17.2791 25.3849 18.3495 26.1494 19.4369C26.6591 20.1505 27.3557 20.4903 28.2222 20.4903C29.4116 20.4903 30.6179 20.4903 31.8072 20.4903C32.4698 20.4903 32.9286 20.0655 32.9286 19.4709C32.9286 18.8762 32.4698 18.4515 31.8072 18.4515C30.9747 18.4515 30.1421 18.4345 29.3096 18.4515C28.7999 18.4684 28.4431 18.2816 28.1543 17.8738C27.0159 16.2937 25.8776 14.7136 24.7222 13.1505C23.6519 11.6723 22.1907 10.9417 20.3727 10.9417C18.4868 10.9417 16.6179 10.9587 14.7319 10.9417C12.7951 10.9248 11.2829 11.6893 10.1616 13.2694C9.05719 14.8155 7.91884 16.3447 6.81447 17.8908C6.52564 18.2816 6.18583 18.4854 5.69311 18.4684C4.86059 18.4515 4.02806 18.4684 3.19554 18.4684C2.49894 18.4684 2.0402 18.8932 2.0402 19.5049C2.0402 20.1165 2.51593 20.5243 3.21253 20.5243C4.36787 20.5243 5.50622 20.5073 6.66156 20.5243C7.61302 20.5413 8.3436 20.1505 8.90428 19.3859C9.63486 18.3495 10.3654 17.3301 11.113 16.2937C11.4698 15.801 11.8776 15.6481 12.3363 15.784C12.829 15.9369 13.0669 16.3107 13.0669 16.9223C13.0669 18.3495 13.0499 19.7937 13.0499 21.2209ZM14.2222 32.9442C16.5499 32.9442 18.8606 32.9612 21.1883 32.9272C21.5111 32.9272 21.8679 32.8083 22.1397 32.6383C22.5645 32.3665 22.7004 31.9078 22.5985 31.3981C22.4795 30.8204 22.0887 30.4976 21.5111 30.3447C17.8752 29.3592 14.2222 28.3568 10.5863 27.3544C9.44797 27.0485 8.32661 26.7427 7.13729 26.7937C5.50622 26.8447 4.18098 28.1869 4.16399 29.818C4.147 31.534 5.50622 32.9272 7.23923 32.9442C9.5669 32.9612 11.8946 32.9442 14.2222 32.9442ZM24.4334 32.9442C25.5378 32.9442 26.6082 32.9442 27.6786 32.9442C29.4795 32.9442 30.8557 31.585 30.8387 29.835C30.8218 28.1189 29.4286 26.7597 27.6446 26.7937C26.948 26.8107 26.2344 26.9126 25.5548 27.0655C24.1955 27.3883 22.8533 27.7791 21.5111 28.1529C22.5815 28.4248 23.5329 28.8665 24.1446 29.835C24.7562 30.8204 24.8242 31.8568 24.4334 32.9442ZM17.5014 2.05583C15.6324 2.05583 14.0863 3.58495 14.0693 5.45388C14.0693 7.32281 15.5815 8.86893 17.4674 8.88592C19.3533 8.90291 20.9164 7.3568 20.9164 5.47087C20.9164 3.58495 19.3873 2.05583 17.5014 2.05583Z" fill="#7677F4"/>
</svg>
