<svg width="32" height="35" viewBox="0 0 32 35" fill="none" xmlns="http://www.w3.org/2000/svg">
<g clip-path="url(#clip0_1_25374)">
<path d="M23.5242 0C23.7867 0.0546875 24.0492 0.10026 24.3117 0.173177C26.8057 0.802083 28.5122 2.90755 28.5403 5.45052C28.5684 8.0026 28.5497 10.5547 28.5403 13.1068C28.5403 13.9544 27.959 14.556 27.1527 14.5651C26.3369 14.5742 25.7369 13.9635 25.7275 13.1068C25.7181 10.6914 25.7275 8.27604 25.7275 5.86068C25.7275 5.70573 25.7275 5.54167 25.7181 5.38672C25.6525 3.89193 24.4618 2.76172 22.9147 2.7526C20.6083 2.74349 18.3018 2.7526 15.9859 2.7526C12.6012 2.7526 9.21653 2.7526 5.82244 2.7526C3.99414 2.73438 2.81277 3.8737 2.81277 5.66016C2.81277 13.5534 2.81277 21.4466 2.81277 29.3398C2.81277 31.1263 3.99414 32.2656 5.82244 32.2656C10.2948 32.2656 14.7764 32.2656 19.2488 32.2656C19.9895 32.2656 20.5801 32.7214 20.702 33.3594C20.8333 34.0612 20.477 34.6445 19.7644 34.9271C19.7269 34.9453 19.6894 34.9727 19.6519 34.9909C14.7764 34.9909 9.90097 34.9909 5.02549 34.9909C4.45356 34.8268 3.8535 34.7448 3.31907 34.4987C1.10636 33.4688 0 31.7096 0 29.3216C0 21.4375 0 13.5625 0 5.67839C0 5.49609 0.00937592 5.3138 0.0187518 5.13151C0.178142 2.7526 1.86581 0.75651 4.24729 0.164062C4.50044 0.10026 4.76297 0.0546875 5.02549 0C11.1948 0 17.3548 0 23.5242 0Z" fill="#7677F4"/>
<path d="M26.9002 34.9988C26.0751 34.698 25.7282 34.1056 25.8032 33.267C25.8126 33.1577 25.8032 33.0392 25.8032 32.9116C25.5219 32.8569 25.2594 32.8204 25.0062 32.7475C23.4873 32.3556 22.456 31.0613 22.4279 29.5392C22.4185 28.7918 22.9717 28.1811 23.7217 28.1355C24.5093 28.09 25.1281 28.5913 25.2219 29.3569C25.2969 29.9585 25.4938 30.1316 26.1032 30.1316C26.722 30.1316 27.3408 30.1316 27.969 30.1316C28.7378 30.1225 29.1691 29.7215 29.1785 28.9741C29.1785 28.8191 29.1879 28.6551 29.1785 28.5001C29.1504 27.771 28.7003 27.3426 27.9503 27.3335C27.369 27.3243 26.7689 27.3608 26.197 27.2788C24.1061 26.978 22.7185 25.31 22.7935 23.2501C22.8591 21.5184 23.853 20.2059 25.5313 19.6681C25.7563 19.5952 25.8219 19.4949 25.8126 19.2853C25.8032 19.0118 25.8032 18.7384 25.8313 18.465C25.9157 17.7814 26.5345 17.2801 27.2471 17.2892C27.9409 17.3074 28.5316 17.8087 28.5972 18.4923C28.6253 18.8295 28.6066 19.1759 28.6066 19.4858C28.991 19.6316 29.3473 19.7319 29.6567 19.9051C30.8005 20.5157 31.4381 21.4637 31.4944 22.7397C31.5319 23.5144 30.9787 24.1434 30.2286 24.2072C29.441 24.271 28.8035 23.7605 28.7003 22.9676C28.6253 22.4025 28.4097 22.2293 27.819 22.2202C27.4533 22.2202 27.0877 22.2111 26.7314 22.2202C26.0282 22.2384 25.5969 22.685 25.5969 23.3868C25.5969 24.0978 26.047 24.5717 26.7314 24.6082C27.5002 24.6447 28.2878 24.5991 29.0379 24.7631C30.6599 25.1004 31.8506 26.5223 31.9632 28.1264C32.0007 28.6824 32.0194 29.2566 31.9163 29.7944C31.6069 31.3621 30.6037 32.3465 29.0191 32.7657C28.8972 32.8022 28.7753 32.8296 28.6066 32.866C28.7003 33.7866 28.5972 34.6342 27.5284 35.0079C27.3221 34.9988 27.1064 34.9988 26.9002 34.9988Z" fill="#7677F4"/>
<path d="M17.1588 6.36343C18.6308 6.36343 20.1122 6.35431 21.5842 6.36343C22.2124 6.36343 22.7187 6.73712 22.9156 7.29311C23.1031 7.83999 22.9343 8.46889 22.4468 8.7879C22.203 8.95197 21.8655 9.07957 21.5748 9.07957C18.6027 9.0978 15.6305 9.0978 12.6583 9.08869C11.8614 9.08869 11.252 8.47801 11.252 7.7215C11.252 6.96499 11.8614 6.36343 12.6583 6.36343C14.1679 6.35431 15.6586 6.36343 17.1588 6.36343Z" fill="#7677F4"/>
<path d="M17.1108 14.5547C15.62 14.5547 14.1386 14.5638 12.6479 14.5547C11.8978 14.5456 11.3259 14.0169 11.2602 13.3151C11.1946 12.6224 11.6447 12.0117 12.3572 11.8568C12.4885 11.8294 12.6385 11.8203 12.7791 11.8203C15.6669 11.8203 18.5641 11.8203 21.4519 11.8203C22.3613 11.8203 22.9989 12.3854 22.9895 13.1966C22.9801 13.9987 22.3519 14.5547 21.4331 14.5547C19.9986 14.5638 18.5547 14.5547 17.1108 14.5547Z" fill="#7677F4"/>
<path d="M17.1303 20.0247C15.6395 20.0247 14.1581 20.0339 12.6673 20.0247C12.0392 20.0247 11.5235 19.6602 11.3266 19.0951C11.1391 18.5664 11.2891 17.9466 11.7579 17.6185C12.011 17.4453 12.3486 17.2995 12.6486 17.2995C15.6208 17.2721 18.5929 17.2812 21.5651 17.2904C22.3714 17.2904 22.9715 17.8919 22.9715 18.6484C22.9715 19.4049 22.3714 20.0065 21.5651 20.0156C20.1024 20.0339 18.6117 20.0247 17.1303 20.0247Z" fill="#7677F4"/>
<path d="M15.7056 22.7697C16.6995 22.7697 17.6933 22.7697 18.6872 22.7697C19.5497 22.7697 20.1686 23.3439 20.1779 24.1277C20.1873 24.9207 19.5591 25.504 18.6778 25.504C16.6995 25.504 14.7211 25.504 12.7428 25.504C11.8802 25.504 11.2614 24.9298 11.2521 24.146C11.2427 23.353 11.8709 22.7697 12.7522 22.7697C13.7367 22.7606 14.7211 22.7697 15.7056 22.7697Z" fill="#7677F4"/>
<path d="M7.37847 9.11393C7.12532 9.08659 6.86279 9.08659 6.61902 9.01367C5.9627 8.83138 5.55954 8.2207 5.64392 7.54622C5.71893 6.9082 6.26273 6.39779 6.92842 6.36133C7.21908 6.3431 7.50973 6.3431 7.80038 6.36133C8.55046 6.39779 9.13176 6.99935 9.13176 7.72852C9.13176 8.45768 8.55046 9.05013 7.80038 9.08659C7.65974 9.0957 7.51911 9.08659 7.37847 9.08659C7.37847 9.0957 7.37847 9.10482 7.37847 9.11393Z" fill="#7677F4"/>
<path d="M7.37847 14.5827C7.12532 14.5553 6.86279 14.5553 6.61902 14.4915C5.9627 14.3092 5.55954 13.6986 5.64392 13.0241C5.71893 12.3861 6.26273 11.8757 6.92842 11.8301C7.21908 11.8118 7.50973 11.8118 7.80038 11.8301C8.55046 11.8665 9.13176 12.4681 9.13176 13.1973C9.13176 13.9264 8.55046 14.5189 7.80038 14.5645C7.65974 14.5736 7.51911 14.5645 7.37847 14.5645C7.37847 14.5645 7.37847 14.5736 7.37847 14.5827Z" fill="#7677F4"/>
<path d="M7.39755 17.2734C7.64132 17.3008 7.89447 17.3008 8.1195 17.3555C8.78519 17.5286 9.19773 18.1302 9.12272 18.8047C9.05709 19.4609 8.51328 19.9805 7.82884 20.0169C7.53819 20.0352 7.24753 20.0352 6.95688 20.0169C6.20681 19.9805 5.6255 19.3698 5.63488 18.6406C5.64425 17.9115 6.22556 17.319 6.97563 17.2826C7.11627 17.2734 7.25691 17.2826 7.39755 17.2826C7.39755 17.2917 7.39755 17.2826 7.39755 17.2734Z" fill="#7677F4"/>
<path d="M7.38779 25.5202C7.13464 25.4928 6.87211 25.4928 6.62834 25.429C5.96265 25.2467 5.56886 24.6361 5.64387 23.9616C5.71888 23.3145 6.26268 22.8132 6.92837 22.7676C7.21902 22.7493 7.50968 22.7493 7.80033 22.7676C8.5504 22.804 9.13171 23.3965 9.13171 24.1257C9.13171 24.8548 8.5504 25.4473 7.80033 25.4928C7.65969 25.502 7.51905 25.4928 7.37841 25.4928C7.38779 25.502 7.38779 25.5111 7.38779 25.5202Z" fill="#7677F4"/>
</g>
<defs>
<clipPath id="clip0_1_25374">
<rect width="32" height="35" fill="white"/>
</clipPath>
</defs>
</svg>
