<svg width="18" height="18" viewBox="0 0 18 18" fill="none" xmlns="http://www.w3.org/2000/svg">
<path d="M1.49478 17.0853C1.43192 17.063 1.3733 17.0395 1.32138 17.0131C1.2465 16.975 1.17622 16.9264 1.12685 16.8573C1.05333 16.7543 0.992106 16.6262 0.935343 16.4996C0.926304 16.4815 0.918395 16.4645 0.911171 16.449L0.910903 16.4485C0.903133 16.4318 0.896122 16.4168 0.888197 16.401L0.875 16.3746V16.3451V16.0857V16.0776L0.87605 16.0695C0.889553 15.966 0.907445 15.8587 0.925033 15.7576C0.964274 15.5089 0.999206 15.2514 1.03435 14.9922C1.07832 14.6624 1.12217 14.3335 1.16163 14.0091L1.16181 14.0076L1.16182 14.0076C1.19805 13.7375 1.23427 13.4601 1.27053 13.1824C1.28262 13.0898 1.29472 12.9971 1.30683 12.9046L1.43077 12.9209M1.49478 17.0853L3.0341 16.9613L3.03574 16.961L3.03749 16.9608L3.03924 16.9606L3.04099 16.9604L3.04274 16.9601L3.04449 16.9599L3.04624 16.9597L3.04799 16.9594L3.04975 16.9592L3.0515 16.959L3.05325 16.9587L3.055 16.9585L3.05675 16.9583L3.0585 16.958L3.06025 16.9578L3.06201 16.9576L3.06376 16.9573L3.06551 16.9571L3.06726 16.9569L3.06901 16.9566L3.07076 16.9564L3.07251 16.9562L3.07427 16.9559L3.07602 16.9557L3.07777 16.9555L3.07952 16.9553L3.08127 16.955L3.08302 16.9548L3.08477 16.9546L3.08652 16.9543L3.08828 16.9541L3.09003 16.9539L3.09178 16.9536L3.09353 16.9534L3.09528 16.9532L3.09703 16.9529L3.09878 16.9527L3.10054 16.9525L3.10229 16.9522L3.10404 16.952L3.10579 16.9518L3.10754 16.9515L3.10929 16.9513L3.11104 16.9511L3.1128 16.9508L3.11455 16.9506L3.1163 16.9504L3.11805 16.9502L3.1198 16.9499L3.12155 16.9497L3.1233 16.9495L3.12506 16.9492L3.12681 16.949L3.12856 16.9488L3.13031 16.9485L3.13206 16.9483L3.13381 16.9481L3.13556 16.9478L3.13731 16.9476L3.13907 16.9474L3.14082 16.9471L3.14257 16.9469L3.14432 16.9467L3.14607 16.9464L3.14782 16.9462L3.14957 16.946L3.15133 16.9458L3.15308 16.9455L3.15483 16.9453L3.15658 16.9451L3.15833 16.9448L3.16008 16.9446L3.16183 16.9444L3.16359 16.9441L3.16534 16.9439L3.16709 16.9437L3.16884 16.9434L3.17059 16.9432L3.17234 16.943L3.17409 16.9427L3.17584 16.9425L3.1776 16.9423L3.17935 16.942L3.1811 16.9418L3.18285 16.9416L3.1846 16.9413L3.18635 16.9411L3.1881 16.9409L3.18986 16.9407L3.19161 16.9404L3.19336 16.9402L3.19511 16.94L3.19686 16.9397L3.19861 16.9395L3.20036 16.9393L3.20212 16.939L3.20387 16.9388L3.20562 16.9386L3.20737 16.9383L3.20912 16.9381L3.21087 16.9379L3.21262 16.9376L3.21438 16.9374L3.21613 16.9372L3.21788 16.9369L3.21963 16.9367L3.22138 16.9365L3.22313 16.9362L3.22488 16.936L3.22663 16.9358L3.22839 16.9356L3.23014 16.9353L3.23189 16.9351L3.23364 16.9349L3.23539 16.9346L3.23714 16.9344L3.23889 16.9342L3.24065 16.9339L3.2424 16.9337L3.24415 16.9335L3.2459 16.9332L3.24765 16.933L3.2494 16.9328L3.25115 16.9325L3.25291 16.9323L3.25466 16.9321L3.25641 16.9318L3.25816 16.9316L3.25991 16.9314L3.26166 16.9311L3.26341 16.9309L3.26517 16.9307L3.26692 16.9305L3.26867 16.9302L3.27042 16.93L3.27217 16.9298L3.27392 16.9295L3.27567 16.9293L3.27742 16.9291L3.27918 16.9288L3.28093 16.9286L3.28268 16.9284L3.28443 16.9281L3.28618 16.9279L3.28793 16.9277L3.28968 16.9274L3.29144 16.9272L3.29319 16.927L3.29494 16.9267L3.29669 16.9265L3.29844 16.9263L3.30019 16.926L3.30194 16.9258L3.3037 16.9256L3.30545 16.9254L3.3072 16.9251L3.30895 16.9249L3.3107 16.9247L3.31245 16.9244L3.3142 16.9242L3.31595 16.924L3.31771 16.9237L3.31946 16.9235L3.32121 16.9233L3.32296 16.923L3.32471 16.9228L3.32646 16.9226L3.32821 16.9223L3.32997 16.9221L3.33172 16.9219L3.33347 16.9216L3.33522 16.9214L3.33697 16.9212L3.33872 16.9209L3.34047 16.9207L3.34223 16.9205L3.34398 16.9203L3.34573 16.92L3.34748 16.9198L3.34923 16.9196L3.35098 16.9193L3.35273 16.9191L3.35449 16.9189L3.35624 16.9186L3.35799 16.9184L3.35974 16.9182L3.36149 16.9179L3.36324 16.9177L3.36499 16.9175L3.36674 16.9172L3.3685 16.917L3.37025 16.9168L3.372 16.9165L3.37375 16.9163L3.3755 16.9161L3.37725 16.9158L3.379 16.9156L3.38076 16.9154L3.38251 16.9152L3.38426 16.9149L3.38601 16.9147L3.38776 16.9145L3.38951 16.9142L3.39126 16.914L3.39302 16.9138L3.39477 16.9135L3.39652 16.9133L3.39827 16.9131L3.40002 16.9128L3.40177 16.9126L3.40352 16.9124L3.40527 16.9121L3.40703 16.9119L3.40878 16.9117L3.41053 16.9114L3.41228 16.9112L3.41403 16.911L3.41578 16.9107L3.41753 16.9105L3.41929 16.9103L3.42104 16.9101L3.42279 16.9098L3.42454 16.9096L3.42629 16.9094L3.42804 16.9091L3.42979 16.9089L3.43155 16.9087L3.4333 16.9084L3.43505 16.9082L3.4368 16.908L3.43855 16.9077L3.4403 16.9075L3.44205 16.9073L3.44381 16.907L3.44556 16.9068L3.44731 16.9066L3.44906 16.9063L3.45081 16.9061L3.45256 16.9059L3.45431 16.9056L3.45606 16.9054L3.45782 16.9052L3.45957 16.905L3.46132 16.9047L3.46307 16.9045L3.46482 16.9043L3.46657 16.904L3.46832 16.9038L3.47008 16.9036L3.47183 16.9033L3.47358 16.9031L3.47533 16.9029L3.47708 16.9026L3.47883 16.9024L3.48058 16.9022L3.48234 16.9019L3.48409 16.9017L3.48584 16.9015L3.48759 16.9012L3.48934 16.901L3.49109 16.9008L3.49284 16.9005L3.4946 16.9003L3.49635 16.9001L3.4981 16.8999L3.49985 16.8996L3.5016 16.8994L3.50335 16.8992L3.5051 16.8989L3.50685 16.8987L3.50861 16.8985L3.51036 16.8982L3.51211 16.898L3.51386 16.8978L3.51561 16.8975L3.51736 16.8973L3.51911 16.8971L3.52087 16.8968L3.52262 16.8966L3.52437 16.8964L3.52612 16.8961L3.52787 16.8959L3.52962 16.8957L3.53137 16.8954L3.53313 16.8952L3.53488 16.895L3.53663 16.8948L3.53838 16.8945L3.54013 16.8943L3.54188 16.8941L3.54363 16.8938L3.54538 16.8936L3.54714 16.8934L3.54889 16.8931L3.55064 16.8929L3.55239 16.8927L3.55414 16.8924L3.55589 16.8922L3.55764 16.892L3.5594 16.8917L3.56115 16.8915L3.5629 16.8913L3.56465 16.891L3.5664 16.8908L3.56815 16.8906L3.5699 16.8904L3.57166 16.8901L3.57341 16.8899L3.57516 16.8897L3.57691 16.8894L3.57866 16.8892L3.58041 16.889L3.58216 16.8887L3.58391 16.8885L3.58567 16.8883L3.58742 16.888L3.58917 16.8878L3.59092 16.8876L3.59267 16.8873L3.59442 16.8871L3.59617 16.8869L3.59793 16.8866L3.59968 16.8864L3.60143 16.8862L3.60318 16.8859L3.60493 16.8857L3.60668 16.8855L3.60843 16.8853L3.61019 16.885L3.61194 16.8848L3.61369 16.8846L3.61544 16.8843L3.61719 16.8841L3.61894 16.8839L3.62069 16.8836L3.62245 16.8834L3.6242 16.8832L3.62595 16.8829L3.6277 16.8827L3.62945 16.8825L3.6312 16.8822L3.63295 16.882L3.6347 16.8818L3.63646 16.8815L3.63821 16.8813L3.63996 16.8811L3.64171 16.8808L3.64346 16.8806L3.64521 16.8804L3.64696 16.8802L3.64872 16.8799L3.65047 16.8797L3.65222 16.8795L3.65397 16.8792L3.65572 16.879L3.65747 16.8788L3.65922 16.8785L3.66098 16.8783L3.66273 16.8781L3.66448 16.8778L3.66623 16.8776L3.66798 16.8774L3.66973 16.8771L3.67148 16.8769L3.67323 16.8767L3.67499 16.8764L3.67674 16.8762L3.67849 16.876L3.68024 16.8757L3.68199 16.8755L3.68374 16.8753L3.68549 16.8751L3.68725 16.8748L3.689 16.8746L3.69075 16.8744L3.6925 16.8741L3.69425 16.8739L3.696 16.8737L3.69775 16.8734L3.69951 16.8732L3.70126 16.873L3.70301 16.8727L3.70476 16.8725L3.70651 16.8723L3.70826 16.872L3.71001 16.8718L3.71177 16.8716L3.71352 16.8713L3.71527 16.8711L3.71702 16.8709L3.71877 16.8706L3.72052 16.8704L3.72227 16.8702L3.72402 16.87L3.72578 16.8697L3.72753 16.8695L3.72928 16.8693L3.73103 16.869L3.73278 16.8688L3.73453 16.8686L3.73628 16.8683L3.73804 16.8681L3.73979 16.8679L3.74154 16.8676L3.74329 16.8674L3.74504 16.8672L3.74679 16.8669L3.74854 16.8667L3.7503 16.8665L3.75205 16.8662L3.7538 16.866L3.75555 16.8658L3.7573 16.8655L3.75905 16.8653L3.7608 16.8651L3.76256 16.8649L3.76431 16.8646L3.76606 16.8644L3.76781 16.8642L3.76956 16.8639L3.77131 16.8637L3.77306 16.8635L3.77481 16.8632L3.77657 16.863L3.77832 16.8628L3.78007 16.8625L3.78182 16.8623L3.78357 16.8621L3.78532 16.8618L3.78707 16.8616L3.78883 16.8614L3.79058 16.8611L3.79233 16.8609L3.79408 16.8607L3.79583 16.8604L3.79758 16.8602L3.79933 16.86L3.80109 16.8598L3.80284 16.8595L3.80459 16.8593L3.80634 16.8591L3.80809 16.8588L3.80984 16.8586L3.81159 16.8584L3.81334 16.8581L3.8151 16.8579L3.81685 16.8577L3.8186 16.8574L3.82035 16.8572L3.8221 16.857L3.82385 16.8567L3.8256 16.8565L3.82736 16.8563L3.82911 16.856L3.83086 16.8558L3.83261 16.8556L3.83436 16.8553L3.83611 16.8551L3.83786 16.8549L3.83962 16.8547L3.84137 16.8544L3.84312 16.8542L3.84487 16.854L3.84662 16.8537L3.84837 16.8535L3.85012 16.8533L3.85188 16.853L3.85363 16.8528L3.85538 16.8526L3.85713 16.8523L3.85888 16.8521L3.86063 16.8519L3.86238 16.8516L3.86413 16.8514L3.86589 16.8512L3.86764 16.8509L3.86939 16.8507L3.87114 16.8505L3.87289 16.8502L3.87464 16.85L3.87639 16.8498L3.87815 16.8496L3.8799 16.8493L3.88165 16.8491L3.8834 16.8489L3.88515 16.8486L3.8869 16.8484L3.88865 16.8482L3.89041 16.8479L3.89216 16.8477L3.89391 16.8475L3.89566 16.8472L3.89741 16.847L3.89916 16.8468L3.90091 16.8465L3.90266 16.8463L3.90442 16.8461L3.90617 16.8458L3.90792 16.8456L3.90967 16.8454L3.91142 16.8451L3.91317 16.8449L3.91492 16.8447L3.91668 16.8445L3.91843 16.8442L3.92018 16.844L3.92193 16.8438L3.92368 16.8435L3.92543 16.8433L3.92718 16.8431L3.92894 16.8428L3.92979 16.8427C3.92994 16.8427 3.93009 16.8427 3.93024 16.8427C4.31749 16.7942 4.71339 16.7415 5.10447 16.6887C5.34093 16.6578 5.54069 16.5438 5.73894 16.3455L5.7391 16.3454C6.9125 15.1676 8.11228 13.9678 9.26822 12.8119L9.26861 12.8115L10.4334 11.6466L10.4363 11.6437L10.4392 11.6409L10.4421 11.638L10.445 11.6351L10.4479 11.6322L10.4508 11.6293L10.4536 11.6264L10.4565 11.6236L10.4594 11.6207L10.4623 11.6178L10.4652 11.6149L10.4681 11.612L10.4709 11.6091L10.4738 11.6062L10.4767 11.6034L10.4796 11.6005L10.4825 11.5976L10.4854 11.5947L10.4883 11.5918L10.4911 11.5889L10.494 11.5861L10.4969 11.5832L10.4998 11.5803L10.5027 11.5774L10.5056 11.5745L10.5084 11.5716L10.5113 11.5687L10.5142 11.5659L10.5171 11.563L10.52 11.5601L10.5229 11.5572L10.5258 11.5543L10.5286 11.5514L10.5315 11.5486L10.5344 11.5457L10.5373 11.5428L10.5402 11.5399L10.5431 11.537L10.5459 11.5341L10.5488 11.5312L10.5517 11.5284L10.5546 11.5255L10.5575 11.5226L10.5604 11.5197L10.5633 11.5168L10.5661 11.5139L10.569 11.5111L10.5719 11.5082L10.5748 11.5053L10.5777 11.5024L10.5806 11.4995L10.5834 11.4966L10.5863 11.4937L10.5892 11.4909L10.5921 11.488L10.595 11.4851L10.5979 11.4822L10.6008 11.4793L10.6036 11.4764L10.6065 11.4736L10.6094 11.4707L10.6123 11.4678L10.6152 11.4649L10.6181 11.462L10.6209 11.4591L10.6238 11.4562L10.6267 11.4534L10.6296 11.4505L10.6325 11.4476L10.6354 11.4447L10.6383 11.4418L10.6411 11.4389L10.644 11.4361L10.6469 11.4332L10.6498 11.4303L10.6527 11.4274L10.6556 11.4245L10.6584 11.4216L10.6613 11.4187L10.6642 11.4159L10.6671 11.413L10.67 11.4101L10.6729 11.4072L10.6758 11.4043L10.6786 11.4014L10.6815 11.3986L10.6844 11.3957L10.6873 11.3928L10.6902 11.3899L10.6931 11.387L10.6959 11.3841L10.6988 11.3812L10.7017 11.3784L10.7046 11.3755L10.7075 11.3726L10.7104 11.3697L10.7133 11.3668L10.7161 11.3639L10.719 11.3611L10.7219 11.3582L10.7248 11.3553L10.7277 11.3524L10.7306 11.3495L10.7334 11.3466L10.7363 11.3437L10.7392 11.3409L10.7421 11.338L10.745 11.3351L10.7479 11.3322L10.7508 11.3293L10.7536 11.3264L10.7565 11.3236L10.7594 11.3207L10.7623 11.3178L10.7652 11.3149L10.7681 11.312L10.7709 11.3091L10.7738 11.3062L10.7767 11.3034L10.7796 11.3005L10.7825 11.2976L10.7854 11.2947L10.7883 11.2918L10.7911 11.2889L10.794 11.2861L10.7969 11.2832L10.7998 11.2803L10.8027 11.2774L10.8056 11.2745L10.8084 11.2716L10.8113 11.2687L10.8142 11.2659L10.8171 11.263L10.82 11.2601L10.8229 11.2572L10.8258 11.2543L10.8286 11.2514L10.8315 11.2486L10.8344 11.2457L10.8373 11.2428L10.8402 11.2399L10.8431 11.237L10.8459 11.2341L10.8488 11.2312L10.8517 11.2284L10.8546 11.2255L10.8575 11.2226L10.8604 11.2197L10.8633 11.2168L10.8661 11.2139L10.869 11.2111L10.8719 11.2082L10.8748 11.2053L10.8777 11.2024L10.8806 11.1995L10.8834 11.1966L10.8863 11.1937L10.8892 11.1909L10.8921 11.188L10.895 11.1851L10.8979 11.1822L10.9008 11.1793L10.9036 11.1764L10.9065 11.1736L10.9094 11.1707L10.9123 11.1678L10.9152 11.1649L10.9181 11.162L10.9209 11.1591L10.9238 11.1562L10.9267 11.1534L10.9296 11.1505L10.9325 11.1476L10.9354 11.1447L10.9383 11.1418L10.9411 11.1389L10.944 11.1361L10.9469 11.1332L10.9498 11.1303L10.9527 11.1274L10.9556 11.1245L10.9584 11.1216L10.9613 11.1187L10.9642 11.1159L10.9671 11.113L10.97 11.1101L10.9729 11.1072L10.9758 11.1043L10.9786 11.1014L10.9815 11.0986L10.9844 11.0957L10.9873 11.0928L10.9902 11.0899L10.9931 11.087L10.9959 11.0841L10.9988 11.0812L11.0017 11.0784L11.0046 11.0755L11.0075 11.0726L11.0104 11.0697L11.0133 11.0668L11.0161 11.0639L11.019 11.0611L11.0219 11.0582L11.0248 11.0553L11.0277 11.0524L11.0306 11.0495L11.0334 11.0466L11.0363 11.0437L11.0392 11.0409L11.0421 11.038L11.045 11.0351L11.0479 11.0322L11.0508 11.0293L11.0536 11.0264L11.0565 11.0236L11.0594 11.0207L11.0623 11.0178L11.0652 11.0149L11.0681 11.012L11.0709 11.0091L11.0738 11.0062L11.0767 11.0034L11.0796 11.0005L11.0825 10.9976L11.0854 10.9947L11.0883 10.9918L11.0911 10.9889L11.094 10.9861L11.0969 10.9832L11.0998 10.9803L11.1027 10.9774L11.1056 10.9745L11.1084 10.9716L11.1113 10.9687L11.1142 10.9659L11.1171 10.963L11.12 10.9601L11.1229 10.9572L11.1258 10.9543L11.1286 10.9514L11.1315 10.9486L11.1344 10.9457L11.1373 10.9428L11.1402 10.9399L11.1431 10.937L11.1459 10.9341L11.1488 10.9312L11.1517 10.9284L11.1546 10.9255L11.1575 10.9226L11.1604 10.9197L11.1633 10.9168L11.1661 10.9139L11.169 10.9111L11.1719 10.9082L11.1748 10.9053L11.1777 10.9024L11.1806 10.8995L11.1834 10.8966L11.1863 10.8937L11.1892 10.8909L11.1921 10.888L11.195 10.8851L11.1979 10.8822L11.2008 10.8793L11.2036 10.8764L11.2065 10.8736L11.2094 10.8707L11.2123 10.8678L11.2152 10.8649L11.2181 10.862L11.2209 10.8591L11.2238 10.8562L11.2267 10.8534L11.2296 10.8505L11.2325 10.8476L11.2354 10.8447L11.2383 10.8418L11.2411 10.8389L11.244 10.8361L11.2469 10.8332L11.2498 10.8303L11.2527 10.8274L11.2556 10.8245L11.2584 10.8216L11.2613 10.8187L11.2642 10.8159L11.2671 10.813L11.27 10.8101L11.2729 10.8072L11.2758 10.8043L11.2786 10.8014L11.2815 10.7986L11.2844 10.7957L11.2873 10.7928L11.2902 10.7899L11.2931 10.787L11.2959 10.7841L11.2988 10.7812L11.3017 10.7784L11.3046 10.7755L11.3075 10.7726L11.3104 10.7697L11.3133 10.7668L11.3161 10.7639L11.319 10.7611L11.3219 10.7582L11.3248 10.7553L11.3277 10.7524L11.3306 10.7495L11.3334 10.7466L11.3363 10.7437L11.3392 10.7409L11.3421 10.738L11.345 10.7351L11.3479 10.7322L11.3508 10.7293L11.3536 10.7264L11.3565 10.7236L11.3594 10.7207L11.3623 10.7178L11.3652 10.7149L11.3681 10.712L11.3709 10.7091L11.3738 10.7062L11.3767 10.7034L11.3796 10.7005L11.3825 10.6976L11.3854 10.6947L11.3883 10.6918L11.3911 10.6889L11.394 10.6861L11.3969 10.6832L11.3998 10.6803L11.4027 10.6774L11.4056 10.6745L11.4084 10.6716L11.4113 10.6687L11.4142 10.6659L11.4171 10.663L11.42 10.6601L11.4229 10.6572L11.4258 10.6543L11.4286 10.6514L11.4315 10.6486L11.4344 10.6457L11.4373 10.6428L11.4402 10.6399L11.4431 10.637L11.4459 10.6341L11.4488 10.6312L11.4517 10.6284L11.4546 10.6255L11.4575 10.6226L11.4604 10.6197L11.4633 10.6168L11.4661 10.6139L11.469 10.6111L11.4719 10.6082L11.4748 10.6053L11.4777 10.6024L11.4806 10.5995L11.4834 10.5966L11.4863 10.5937L11.4892 10.5909L11.4921 10.588L11.495 10.5851L11.4979 10.5822L11.5008 10.5793L11.5036 10.5764L11.5065 10.5736L11.5094 10.5707L11.5123 10.5678L11.5152 10.5649L11.5181 10.562L11.5209 10.5591L11.5238 10.5562L11.5267 10.5534L11.5296 10.5505L11.5325 10.5476L11.5354 10.5447L11.5383 10.5418L11.5411 10.5389L11.544 10.5361L11.5469 10.5332L11.5498 10.5303L11.5527 10.5274L11.5556 10.5245L11.5584 10.5216L11.5613 10.5187L11.5642 10.5159L11.5671 10.513L11.57 10.5101L11.5729 10.5072L11.5758 10.5043L11.5786 10.5014L11.5815 10.4986L11.5844 10.4957L11.5873 10.4928L11.5902 10.4899L11.5931 10.487L11.5959 10.4841L11.5988 10.4812L11.6017 10.4784L11.6046 10.4755L11.6075 10.4726L11.6104 10.4697L11.6133 10.4668L11.6161 10.4639L11.619 10.4611L11.6219 10.4582L11.6248 10.4553L11.6277 10.4524L11.6306 10.4495L11.6334 10.4466L11.6363 10.4437L11.6392 10.4409L11.6421 10.438L11.645 10.4351L11.6479 10.4322L11.6508 10.4293L11.6536 10.4264L11.6565 10.4236L11.6594 10.4207L11.6623 10.4178L11.6652 10.4149L11.6681 10.412L11.6709 10.4091L11.6738 10.4062L11.6767 10.4034L11.6796 10.4005L11.6825 10.3976L11.6854 10.3947L11.6883 10.3918L11.6911 10.3889L11.694 10.3861L11.6969 10.3832L11.6998 10.3803L11.7027 10.3774L11.7056 10.3745L11.7084 10.3716L11.7113 10.3687L11.7142 10.3659L11.7171 10.363L11.72 10.3601L11.7229 10.3572L11.7258 10.3543L11.7286 10.3514L11.7315 10.3486L11.7344 10.3457L11.7373 10.3428L11.7402 10.3399L11.7431 10.337L11.7459 10.3341L11.7488 10.3312L11.7517 10.3284L11.7546 10.3255L11.7575 10.3226L11.7604 10.3197L11.7633 10.3168L11.7661 10.3139L11.769 10.3111L11.7719 10.3082L11.7748 10.3053L11.7777 10.3024L11.7806 10.2995L11.7834 10.2966L11.7863 10.2937L11.7892 10.2909L11.7921 10.288L11.795 10.2851L11.7979 10.2822L11.8008 10.2793L11.8036 10.2764L11.8065 10.2736L11.8094 10.2707L11.8123 10.2678L11.8152 10.2649L11.8181 10.262L11.8209 10.2591L11.8238 10.2562L11.8267 10.2534L11.8296 10.2505L11.8325 10.2476L11.8354 10.2447L11.8383 10.2418L11.8411 10.2389L11.844 10.2361L11.8469 10.2332L11.8498 10.2303L11.8527 10.2274L11.8556 10.2245L11.8584 10.2216L11.8613 10.2187L11.8642 10.2159L11.8671 10.213L11.87 10.2101L11.8729 10.2072L11.8758 10.2043L11.8786 10.2014L11.8815 10.1986L11.8844 10.1957L11.8873 10.1928L11.8902 10.1899L11.8931 10.187L11.8959 10.1841L11.8988 10.1812L11.9017 10.1784L11.9046 10.1755L11.9075 10.1726L11.9104 10.1697L11.9105 10.1696C13.4443 8.63137 15.0353 7.04479 16.6 5.48444C16.86 5.22887 17.0506 5.0055 17.1213 4.72262L17.125 4.7077V4.69231V4.41099V4.39148L17.1191 4.37289C17.0443 4.13925 16.9386 3.94839 16.78 3.79446C16.2793 3.29377 15.7696 2.78407 15.2818 2.30067C15.0412 2.05712 14.7983 1.81522 14.5565 1.57439C14.436 1.45432 14.3157 1.33452 14.1961 1.21491C13.9803 0.999103 13.7214 0.875 13.4527 0.875C13.1793 0.875 12.9205 0.99945 12.6962 1.2237L12.5119 1.40805C12.5118 1.40814 12.5117 1.40823 12.5116 1.40831C11.7689 2.14666 10.9995 2.91166 10.2476 3.66791C9.60598 4.31175 8.96324 4.95449 8.3204 5.59733L8.31999 5.59774C7.67733 6.2404 7.03459 6.88314 6.39293 7.527C6.39288 7.52705 6.39283 7.5271 6.39278 7.52715L3.58445 10.3355C3.58439 10.3355 3.58433 10.3356 3.58427 10.3357C3.26547 10.6523 2.94229 10.9754 2.61821 11.2995C2.29413 11.6236 1.96913 11.9486 1.64635 12.2692C1.45037 12.4605 1.33737 12.6654 1.30678 12.905L1.43077 12.9209M1.49478 17.0853V17.125H1.61978H1.90989H1.92024L1.93044 17.1233C1.98151 17.1148 2.0339 17.1073 2.08801 17.0996L2.08848 17.0995C2.14167 17.0919 2.19655 17.0841 2.25056 17.0751C2.50468 17.0356 2.77163 16.9963 3.03398 16.9613L1.49478 17.0853ZM1.43077 12.9209C1.45714 12.7143 1.55385 12.5341 1.73407 12.3582L1.28571 14.0242C1.32198 13.7539 1.35824 13.4761 1.3945 13.1984C1.40659 13.1058 1.41868 13.0132 1.43077 12.9209ZM1.91813 16.0723L2.02071 15.2663L2.02079 15.2656C2.03968 15.1098 2.05925 14.9597 2.07884 14.8095C2.09625 14.6759 2.11367 14.5423 2.13062 14.4046C2.18339 13.9912 2.23154 13.6148 2.2884 13.2431L2.28842 13.2431L2.28871 13.2409C2.30715 13.1044 2.36997 12.9804 2.45542 12.895L10.2356 5.11476L10.3324 5.01801L10.5867 4.80933L10.8696 5.0684L13.2081 7.40261L12.9982 7.62499L12.9819 7.64128C12.9676 7.6556 12.9525 7.67182 12.9388 7.68656L12.9365 7.689C12.9215 7.70512 12.9076 7.72002 12.894 7.73359L11.2984 9.32919C10.2764 10.3512 9.25552 11.3732 8.23464 12.3952L8.22926 12.4006C7.21017 13.4207 6.19111 14.4409 5.17095 15.4611C5.01783 15.6142 4.85864 15.6926 4.66452 15.7154L4.66385 15.7155C4.11744 15.7827 3.57911 15.854 3.01117 15.9292L2.93109 15.9398C2.93102 15.9398 2.93095 15.9398 2.93088 15.9398C2.72873 15.9662 2.52676 15.9925 2.32044 16.0189L2.31981 16.0189L1.91813 16.0723ZM16.0366 4.53863L13.9625 6.62085L11.3658 4.02418L13.444 1.94601L16.0366 4.53863Z" fill="#898989" stroke="#898989" stroke-width="0.25"/>
</svg>
