<svg width="23" height="24" viewBox="0 0 23 24" fill="none" xmlns="http://www.w3.org/2000/svg">
<g clip-path="url(#clip0_1_25367)">
<path d="M11.9827 -0.0015625C12.1271 0.0359375 12.2785 0.0734375 12.423 0.123438C13.3173 0.417188 13.8676 1.14844 13.8745 2.06094C13.8814 2.56719 13.8814 3.07344 13.8745 3.58594C13.8676 3.74844 13.9295 3.81094 14.0946 3.86719C16.867 4.77969 18.5937 6.54219 19.2197 9.16094C19.3367 9.63594 19.3504 10.1359 19.3642 10.6234C19.3917 11.5859 19.3573 12.5422 19.3986 13.5047C19.4605 14.9234 19.942 16.2297 20.7469 17.4422C21.3385 18.3359 21.9301 19.2359 22.5218 20.1297C22.6525 20.3297 22.735 20.5234 22.5974 20.7422C22.4667 20.9609 22.2397 20.9984 21.9783 20.9984C15.099 20.9984 8.22659 20.9984 1.34729 20.9984C1.09276 20.9984 0.865741 20.9547 0.728155 20.7359C0.597449 20.5172 0.673121 20.3234 0.803827 20.1234C1.38857 19.2484 1.95955 18.3672 2.54429 17.4984C3.50051 16.0734 3.96142 14.5359 3.96142 12.8672C3.96142 12.0547 3.95455 11.2422 3.96142 10.4297C4.00958 7.41719 6.07337 4.83594 9.21033 3.86719C9.40295 3.81094 9.45798 3.73594 9.45798 3.55469C9.4511 2.96719 9.42359 2.37969 9.47862 1.79844C9.56117 0.892188 10.2491 0.229688 11.2328 0.0359375C11.2741 0.0296875 11.3085 0.0109375 11.3498 -0.0078125C11.5699 -0.0015625 11.7763 -0.0015625 11.9827 -0.0015625Z" fill="#59595B"/>
<path d="M11.2593 23.9992C10.8947 23.9055 10.5232 23.843 10.1793 23.7117C9.36063 23.4117 8.75525 22.8867 8.32185 22.193C8.28746 22.143 8.26682 22.0805 8.23242 22.0117C10.537 22.0117 12.814 22.0117 15.1255 22.0117C14.8778 22.4867 14.5476 22.868 14.128 23.1805C13.5776 23.5992 12.9447 23.868 12.2293 23.9617C12.1811 23.968 12.133 23.9867 12.0848 23.9992C11.8097 23.9992 11.5345 23.9992 11.2593 23.9992Z" fill="#59595B"/>
</g>
<defs>
<clipPath id="clip0_1_25367">
<rect width="22" height="24" fill="white" transform="translate(0.671875)"/>
</clipPath>
</defs>
</svg>
