<svg width="40" height="32" viewBox="0 0 40 32" fill="none" xmlns="http://www.w3.org/2000/svg">
<path d="M19.8672 31.9986C16.7508 31.9986 13.7052 31.3822 10.8012 30.1493C9.24303 29.4785 7.79106 28.6082 6.49845 27.5204C6.00266 27.1034 5.80788 26.6502 5.80788 25.9975C5.82559 24.0394 5.82559 22.0451 5.82559 20.1232C5.82559 18.7635 5.82559 17.4037 5.82559 16.0258C5.82559 15.5544 5.64852 15.2462 5.24126 15.0286C4.46215 14.6116 3.66534 14.1765 2.90394 13.7414C2.21337 13.3606 1.50509 12.9618 0.796813 12.5992C0.23019 12.3272 0 11.9827 0 11.4932C0 11.0218 0.247897 10.6774 0.796813 10.3691C6.65781 7.14194 12.9438 3.67905 19.212 0.216163C19.4954 0.05299 19.7432 -0.0195312 19.9911 -0.0195312C20.239 -0.0195312 20.5046 0.05299 20.788 0.216163C27.5343 3.95101 33.5193 7.25073 39.0792 10.2966C39.7521 10.6592 40 11.0944 40 11.8558C39.9823 13.7414 39.9823 15.6632 39.9823 17.5125C39.9823 18.4553 39.9823 19.3799 39.9823 20.3227C39.9823 20.9029 39.699 21.3199 39.1855 21.483C39.0792 21.5193 38.973 21.5374 38.8668 21.5374C38.4949 21.5374 38.1762 21.3561 37.9991 21.0479C37.8752 20.8303 37.7866 20.5221 37.7866 20.2683C37.7689 18.836 37.7689 17.3856 37.7689 15.9895C37.7689 15.5181 37.7689 13.3606 37.7689 13.3606L37.2554 13.6507C37.0075 13.7776 36.7773 13.9046 36.5471 14.0315C35.8566 14.4122 35.2191 14.7567 34.5817 15.1374C34.2807 15.3187 34.1744 15.7357 34.1744 15.9714C34.1567 19.2349 34.139 22.6071 34.1744 25.9793C34.1744 26.632 33.9796 27.0853 33.4838 27.5023C31.2174 29.3697 28.5082 30.6751 25.4449 31.3459C23.5502 31.781 21.6733 31.9986 19.8672 31.9986ZM8.05666 17.168C8.05666 17.2043 8.03896 17.2224 8.03896 17.2587C8.02125 17.313 8.02125 17.3674 8.02125 17.44V18.564C8.02125 20.8122 8.02125 23.151 8.03896 25.4354C8.03896 25.7255 8.25144 26.0337 8.44622 26.1969C9.75653 27.2122 11.2616 27.9918 13.05 28.6082C15.2634 29.3697 17.583 29.7505 19.938 29.7505C20.965 29.7505 22.0274 29.6779 23.0722 29.5329C26.3656 29.0796 29.1456 28.0099 31.5538 26.2513C31.8725 26.0156 32.0142 25.7436 31.9965 25.3448C31.9965 23.4774 31.9965 21.5737 31.9965 19.7244V17.6575C31.9965 17.5669 31.9965 17.4944 31.9788 17.3856C31.9788 17.3312 31.9788 17.2768 31.961 17.2224L31.9433 16.6604L31.2705 17.0048C31.1465 17.0592 31.0403 17.1136 30.934 17.1861C30.0841 17.6575 29.2342 18.1108 28.4019 18.5822C25.923 19.9419 23.3555 21.3561 20.8411 22.7703C20.5401 22.9334 20.2745 23.006 20.0266 23.006C19.761 23.006 19.4954 22.9153 19.1766 22.7521C16.6445 21.338 14.0593 19.9057 11.5449 18.5278C10.695 18.0564 9.84506 17.585 8.99513 17.1136C8.9066 17.0592 8.81806 17.023 8.71182 16.9686L8.1452 16.6785L8.05666 17.168ZM20.0089 2.48245C19.7787 2.48245 19.5839 2.5731 19.4599 2.64563C16.5737 4.24109 13.6875 5.83656 10.7835 7.43203L3.47056 11.4751L4.00177 11.8014L4.16113 11.9102C4.24967 11.9646 4.3205 12.0009 4.39132 12.0553L7.49004 13.7595C11.421 15.9351 15.4936 18.1652 19.4954 20.3952C19.6724 20.4859 19.8318 20.5402 19.9911 20.5402C20.1682 20.5402 20.3276 20.4859 20.5401 20.3771C24.0992 18.4009 27.6583 16.4428 31.2351 14.4666L35.5556 12.0734C35.6441 12.019 35.7326 11.9646 35.8389 11.8921C35.892 11.8558 35.9274 11.8377 35.9805 11.8014L36.4586 11.4932L35.9628 11.185L35.8566 11.1125C35.7857 11.0762 35.7326 11.04 35.6795 11.0037L32.51 9.24506C28.5082 7.03316 24.5064 4.83939 20.5046 2.6275C20.3276 2.53684 20.1682 2.48245 20.0089 2.48245Z" fill="#7677F4"/>
</svg>
