<svg width="28" height="36" viewBox="0 0 28 36" fill="none" xmlns="http://www.w3.org/2000/svg">
<path d="M27.6789 32.6697C25.8927 29.6738 24.1065 26.6145 22.3686 23.6503L21.5318 22.2395L21.1777 21.6213C20.9686 21.2567 20.6467 20.7178 20.2766 20.0837C19.0697 18.023 17.2674 14.9003 16.5111 13.7115C16.0766 13.0298 15.9318 12.475 15.9961 11.841C16.0283 11.5081 16.0283 10.8741 16.0283 10.1132H17.2513C19.0697 10.1132 20.8881 10.1132 22.7065 10.1132C23.9617 10.1132 24.4766 9.36817 24.6697 8.90848C25.0237 8.13177 24.8306 7.29164 24.1548 6.61003C23.7686 6.2296 23.3823 5.84916 22.9961 5.46873C22.8513 5.32607 22.7065 5.18341 22.5617 5.04074C23.1088 4.5018 23.672 3.96285 24.2191 3.40805C24.9915 2.63133 25.072 1.50588 24.3961 0.729164C24.1869 0.491393 23.9617 0.348731 23.7846 0.253622C23.7364 0.22192 23.7042 0.206068 23.6559 0.174365L23.3984 0H13.518L13.3088 0.0951084C12.4237 0.491393 11.9731 1.25226 11.9731 2.33015C11.9892 4.80297 11.9892 8.30613 11.9731 12.7762C11.9731 12.7921 11.9571 12.8396 11.9571 12.8713C11.1846 14.2028 10.38 15.5661 9.60763 16.8817L8.83522 18.1974C8.80303 18.245 8.22372 19.2436 7.6766 20.1947L7.62832 20.2739C7.58005 20.3373 7.54786 20.4166 7.49959 20.48C6.872 21.542 6.24441 22.6199 5.61683 23.682C3.8789 26.6462 2.09269 29.7055 0.306483 32.7014C-0.0958154 33.383 -0.111907 34.1756 0.258208 34.8255C0.628323 35.4754 1.35246 35.8559 2.15706 35.8559C2.15706 35.8559 2.15706 35.8559 2.17315 35.8559C9.8651 35.8242 17.8145 35.8242 25.8283 35.8559C26.6329 35.8559 27.341 35.4754 27.7111 34.8255C28.1134 34.1598 28.0812 33.3672 27.6789 32.6697ZM14.0812 2.06068H22.6582C21.9984 2.72644 21.3065 3.3922 20.6467 4.04211L20.6306 4.05796C20.5984 4.07381 20.5823 4.10551 20.5502 4.12136C20.5019 4.15307 20.4697 4.18477 20.4214 4.21647L19.5525 4.89808L20.3892 5.81746C20.4536 5.89672 20.518 5.96012 20.5823 6.02353C20.9042 6.34056 21.2099 6.64173 21.5318 6.95876C21.9019 7.32334 22.2881 7.70378 22.6582 8.06836C21.5157 8.06836 20.3731 8.06836 19.2306 8.06836C18.5709 8.06836 17.9111 8.06836 17.2513 8.06836H14.0812C14.0812 5.76991 14.0812 3.85189 14.0651 2.3143C14.0651 2.18749 14.0812 2.10824 14.0812 2.06068ZM11.426 17.8962C12.1984 16.5806 13.003 15.2173 13.7754 13.87C13.9042 13.6639 13.9846 13.4261 14.0329 13.1725C14.1617 13.7115 14.403 14.2504 14.7571 14.7894C15.4812 15.9465 17.2835 19.0375 18.4743 21.0982C18.6674 21.4469 18.8605 21.764 19.0214 22.0334L20.3892 24.3794L19.5686 25.1879L14.3226 20.0362L11.8927 22.4297L9.8812 20.5434C10.2996 19.8301 10.6375 19.2436 10.6697 19.196L11.426 17.8962ZM25.8444 33.7793C17.8306 33.7476 9.8651 33.7476 2.18924 33.7793C2.15706 33.7793 2.14097 33.7793 2.10878 33.7793C2.10878 33.7635 2.12487 33.7476 2.12487 33.7318C3.91108 30.72 5.71338 27.6607 7.43522 24.6965C7.88579 23.9198 8.33637 23.1589 8.78694 22.3822L11.9249 25.3147L14.3226 22.9528L19.5525 28.1045L21.4674 26.2182C22.9157 28.691 24.3961 31.2114 25.8766 33.7001C25.8927 33.7318 25.9088 33.7476 25.9088 33.7635C25.8766 33.7793 25.8605 33.7793 25.8444 33.7793Z" fill="#7677F4"/>
</svg>
