<svg width="33" height="35" viewBox="0 0 33 35" fill="none" xmlns="http://www.w3.org/2000/svg">
<path d="M29.0076 34.9046C20.6649 34.9046 12.3222 34.9046 3.97951 34.9046C3.95274 34.8864 3.92597 34.8591 3.89921 34.8591C1.40086 34.341 0 32.5958 0 30.0144C0 22.5063 0 14.9983 0 7.4812C0 7.12671 0.00892269 6.77221 0.0713814 6.42681C0.490747 4.13622 2.31989 2.60008 4.6041 2.59099C5.16623 2.59099 5.73728 2.59099 6.3351 2.59099C6.3351 2.17287 6.3351 1.7911 6.3351 1.40934C6.34402 0.582184 6.87938 0.000448564 7.61104 0.000448564C8.35162 0.000448564 8.86913 0.582184 8.86913 1.41843C8.86913 1.80019 8.86913 2.18196 8.86913 2.56372C13.9729 2.56372 19.0321 2.56372 24.1091 2.56372C24.1091 2.42738 24.1091 2.3183 24.1091 2.20014C24.1091 1.90927 24.1091 1.60931 24.1091 1.31844C24.118 0.582184 24.6444 0.0277174 25.3315 0.000448564C26.0364 -0.0177307 26.5985 0.518557 26.6431 1.26391C26.6609 1.69112 26.6431 2.11833 26.6431 2.5819C27.2944 2.5819 27.9012 2.5819 28.5169 2.5819C29.2753 2.59099 29.998 2.77278 30.6583 3.16364C32.2198 4.09987 32.996 5.51785 32.996 7.36304C32.996 12.0351 32.996 16.6981 32.996 21.3701C32.996 24.2879 33.005 27.2057 32.996 30.1325C32.9871 32.3595 31.6755 34.1592 29.65 34.7319C29.4359 34.7955 29.2217 34.85 29.0076 34.9046ZM6.34402 5.19971C5.61236 5.19971 4.89855 5.13608 4.2115 5.21789C3.18539 5.33605 2.53404 6.23593 2.53404 7.39031C2.53404 14.9529 2.53404 22.5245 2.53404 30.0871C2.53404 31.496 3.36385 32.3231 4.74686 32.3231C11.4121 32.3231 18.0863 32.3231 24.7515 32.3231C25.9917 32.3231 27.2231 32.3322 28.4633 32.3231C29.3645 32.314 30.1319 31.7141 30.3638 30.8415C30.4263 30.6052 30.4531 30.3507 30.4531 30.1053C30.4531 22.5427 30.4531 14.971 30.4531 7.40849C30.4531 7.23578 30.4352 7.06308 30.4174 6.89947C30.2835 5.97233 29.4805 5.22698 28.5525 5.19971C27.9726 5.18153 27.3926 5.19062 26.8126 5.19971C26.7591 5.19971 26.7145 5.22698 26.652 5.24516C26.652 5.65419 26.6609 6.05413 26.652 6.45408C26.6342 7.22669 26.072 7.79934 25.3671 7.79025C24.6533 7.78116 24.1269 7.20852 24.118 6.42681C24.118 6.03595 24.118 5.63601 24.118 5.22698C19.0321 5.22698 13.9729 5.22698 8.8959 5.22698C8.88698 5.35423 8.87806 5.46331 8.87806 5.57238C8.87806 5.86325 8.87806 6.16321 8.87806 6.45408C8.86913 7.20851 8.33377 7.77207 7.62888 7.78116C6.93291 7.79025 6.37079 7.23578 6.34402 6.48135C6.32617 6.04504 6.34402 5.62692 6.34402 5.19971Z" fill="#7677F4"/>
<path d="M9.18902 27.7985C8.31459 27.7894 7.59185 27.035 7.6097 26.1533C7.62754 25.2716 8.35028 24.5535 9.20686 24.5626C10.0813 24.5717 10.804 25.3261 10.7862 26.2078C10.7683 27.0895 10.0456 27.8076 9.18902 27.7985Z" fill="#7677F4"/>
<path d="M9.1977 21.3336C8.32327 21.3336 7.60053 20.5882 7.60946 19.6974C7.61838 18.8157 8.32327 18.0977 9.1977 18.0977C10.081 18.0977 10.8038 18.8339 10.7859 19.7247C10.777 20.6064 10.0632 21.3336 9.1977 21.3336Z" fill="#7677F4"/>
<path d="M24.7446 13.2405C24.7446 14.1313 24.0575 14.8493 23.1831 14.8584C22.2998 14.8675 21.5859 14.1494 21.5859 13.2496C21.5859 12.3406 22.2908 11.6316 23.1831 11.6407C24.0486 11.6407 24.7356 12.3497 24.7446 13.2405Z" fill="#7677F4"/>
<path d="M14.5977 26.1714C14.6066 25.2807 15.3026 24.5717 16.1681 24.5626C17.0425 24.5535 17.7652 25.2988 17.7563 26.1896C17.7474 27.0713 17.0425 27.7894 16.177 27.7985C15.3115 27.8076 14.5977 27.0713 14.5977 26.1714Z" fill="#7677F4"/>
<path d="M24.7329 19.7221C24.724 20.6038 24.028 21.3219 23.1536 21.3219C22.2703 21.3219 21.5654 20.5947 21.5743 19.6857C21.5832 18.804 22.2792 18.0859 23.1536 18.0859C24.037 18.095 24.7419 18.8222 24.7329 19.7221Z" fill="#7677F4"/>
<path d="M9.18877 11.6406C10.0721 11.6406 10.7948 12.3678 10.7859 13.2586C10.777 14.1403 10.0721 14.8583 9.20661 14.8583C8.32327 14.8583 7.60053 14.1312 7.60946 13.2404C7.61838 12.3587 8.32327 11.6406 9.18877 11.6406Z" fill="#7677F4"/>
<path d="M24.7329 26.1623C24.7419 27.0621 24.028 27.7984 23.1536 27.7984C22.2881 27.7984 21.5832 27.0803 21.5743 26.1986C21.5654 25.2988 22.2792 24.5625 23.1536 24.5625C24.028 24.5625 24.7329 25.2806 24.7329 26.1623Z" fill="#7677F4"/>
<path d="M14.5977 19.7235C14.5888 18.8236 15.3026 18.0965 16.186 18.1056C17.0515 18.1146 17.7564 18.8236 17.7653 19.7144C17.7653 20.6052 17.0426 21.3415 16.1681 21.3415C15.3026 21.3233 14.6067 20.6143 14.5977 19.7235Z" fill="#7677F4"/>
<path d="M16.1681 11.6406C17.0604 11.6406 17.7653 12.3587 17.7653 13.2586C17.7653 14.1403 17.0604 14.8583 16.186 14.8674C15.3026 14.8765 14.5888 14.1494 14.5977 13.2495C14.6067 12.3496 15.2937 11.6406 16.1681 11.6406Z" fill="#7677F4"/>
</svg>
